<?xml version="1.0" encoding="utf-8" standalone="no"?>
<!DOCTYPE svg PUBLIC "-//W3C//DTD SVG 1.1//EN"
  "http://www.w3.org/Graphics/SVG/1.1/DTD/svg11.dtd">
<svg height="256.563413pt" version="1.1" viewBox="0 0 358.642369 256.563413" width="358.642369pt" xmlns="http://www.w3.org/2000/svg" xmlns:xlink="http://www.w3.org/1999/xlink">
 <metadata>
  <rdf:RDF xmlns:cc="http://creativecommons.org/ns#" xmlns:dc="http://purl.org/dc/elements/1.1/" xmlns:rdf="http://www.w3.org/1999/02/22-rdf-syntax-ns#">
   <cc:Work>
    <dc:type rdf:resource="http://purl.org/dc/dcmitype/StillImage"/>
    <dc:date>2022-05-13T21:27:41.151254</dc:date>
    <dc:format>image/svg+xml</dc:format>
    <dc:creator>
     <cc:Agent>
      <dc:title>Matplotlib v3.4.3, https://matplotlib.org/</dc:title>
     </cc:Agent>
    </dc:creator>
   </cc:Work>
  </rdf:RDF>
 </metadata>
 <defs>
  <style type="text/css">*{stroke-linecap:butt;stroke-linejoin:round;}</style>
 </defs>
 <g id="figure_1">
  <g id="patch_1">
   <path d="M 0 256.563413 
L 358.642369 256.563413 
L 358.642369 0 
L 0 0 
z
" style="fill:#ffffff;stroke:#ffffff;stroke-linejoin:miter;"/>
  </g>
  <g id="axes_1">
   <g id="patch_2">
    <path d="M 41.190688 145.6856 
L 139.944688 145.6856 
L 139.944688 21.5 
L 41.190688 21.5 
z
" style="fill:#ebebeb;"/>
   </g>
   <g id="matplotlib.axis_1">
    <g id="xtick_1">
     <g id="line2d_1">
      <path clip-path="url(#pbba24cd773)" d="M 45.679506 145.6856 
L 45.679506 21.5 
" style="fill:none;stroke:#ffffff;"/>
     </g>
     <g id="line2d_2">
      <path d="M 45.679506 145.6856 
" style="fill:none;stroke:#333333;stroke-width:1.5;"/>
      <defs>
       <path d="M 0 0 
L 0 2.75 
" id="m96c9d4d552" style="stroke:#000000;"/>
      </defs>
      <g>
       <use style="fill:#333333;stroke:#000000;" x="45.679506" xlink:href="#m96c9d4d552" y="145.6856"/>
      </g>
     </g>
     <g id="text_1">
      <!-- 0 -->
      <g style="fill:#4d4d4d;" transform="translate(42.880006 157.322225)scale(0.088 -0.088)">
       <defs>
        <path d="M 2034 4250 
Q 1547 4250 1301 3770 
Q 1056 3291 1056 2328 
Q 1056 1369 1301 889 
Q 1547 409 2034 409 
Q 2525 409 2770 889 
Q 3016 1369 3016 2328 
Q 3016 3291 2770 3770 
Q 2525 4250 2034 4250 
z
M 2034 4750 
Q 2819 4750 3233 4129 
Q 3647 3509 3647 2328 
Q 3647 1150 3233 529 
Q 2819 -91 2034 -91 
Q 1250 -91 836 529 
Q 422 1150 422 2328 
Q 422 3509 836 4129 
Q 1250 4750 2034 4750 
z
" id="DejaVuSans-30" transform="scale(0.015625)"/>
       </defs>
       <use xlink:href="#DejaVuSans-30"/>
      </g>
     </g>
    </g>
    <g id="xtick_2">
     <g id="line2d_3">
      <path clip-path="url(#pbba24cd773)" d="M 68.123597 145.6856 
L 68.123597 21.5 
" style="fill:none;stroke:#ffffff;"/>
     </g>
     <g id="line2d_4">
      <path d="M 68.123597 145.6856 
" style="fill:none;stroke:#333333;stroke-width:1.5;"/>
      <g>
       <use style="fill:#333333;stroke:#000000;" x="68.123597" xlink:href="#m96c9d4d552" y="145.6856"/>
      </g>
     </g>
     <g id="text_2">
      <!-- 25 -->
      <g style="fill:#4d4d4d;" transform="translate(62.524597 157.322225)scale(0.088 -0.088)">
       <defs>
        <path d="M 1228 531 
L 3431 531 
L 3431 0 
L 469 0 
L 469 531 
Q 828 903 1448 1529 
Q 2069 2156 2228 2338 
Q 2531 2678 2651 2914 
Q 2772 3150 2772 3378 
Q 2772 3750 2511 3984 
Q 2250 4219 1831 4219 
Q 1534 4219 1204 4116 
Q 875 4013 500 3803 
L 500 4441 
Q 881 4594 1212 4672 
Q 1544 4750 1819 4750 
Q 2544 4750 2975 4387 
Q 3406 4025 3406 3419 
Q 3406 3131 3298 2873 
Q 3191 2616 2906 2266 
Q 2828 2175 2409 1742 
Q 1991 1309 1228 531 
z
" id="DejaVuSans-32" transform="scale(0.015625)"/>
        <path d="M 691 4666 
L 3169 4666 
L 3169 4134 
L 1269 4134 
L 1269 2991 
Q 1406 3038 1543 3061 
Q 1681 3084 1819 3084 
Q 2600 3084 3056 2656 
Q 3513 2228 3513 1497 
Q 3513 744 3044 326 
Q 2575 -91 1722 -91 
Q 1428 -91 1123 -41 
Q 819 9 494 109 
L 494 744 
Q 775 591 1075 516 
Q 1375 441 1709 441 
Q 2250 441 2565 725 
Q 2881 1009 2881 1497 
Q 2881 1984 2565 2268 
Q 2250 2553 1709 2553 
Q 1456 2553 1204 2497 
Q 953 2441 691 2322 
L 691 4666 
z
" id="DejaVuSans-35" transform="scale(0.015625)"/>
       </defs>
       <use xlink:href="#DejaVuSans-32"/>
       <use x="63.623047" xlink:href="#DejaVuSans-35"/>
      </g>
     </g>
    </g>
    <g id="xtick_3">
     <g id="line2d_5">
      <path clip-path="url(#pbba24cd773)" d="M 90.567688 145.6856 
L 90.567688 21.5 
" style="fill:none;stroke:#ffffff;"/>
     </g>
     <g id="line2d_6">
      <path d="M 90.567688 145.6856 
" style="fill:none;stroke:#333333;stroke-width:1.5;"/>
      <g>
       <use style="fill:#333333;stroke:#000000;" x="90.567688" xlink:href="#m96c9d4d552" y="145.6856"/>
      </g>
     </g>
     <g id="text_3">
      <!-- 50 -->
      <g style="fill:#4d4d4d;" transform="translate(84.968688 157.322225)scale(0.088 -0.088)">
       <use xlink:href="#DejaVuSans-35"/>
       <use x="63.623047" xlink:href="#DejaVuSans-30"/>
      </g>
     </g>
    </g>
    <g id="xtick_4">
     <g id="line2d_7">
      <path clip-path="url(#pbba24cd773)" d="M 113.011778 145.6856 
L 113.011778 21.5 
" style="fill:none;stroke:#ffffff;"/>
     </g>
     <g id="line2d_8">
      <path d="M 113.011778 145.6856 
" style="fill:none;stroke:#333333;stroke-width:1.5;"/>
      <g>
       <use style="fill:#333333;stroke:#000000;" x="113.011778" xlink:href="#m96c9d4d552" y="145.6856"/>
      </g>
     </g>
     <g id="text_4">
      <!-- 75 -->
      <g style="fill:#4d4d4d;" transform="translate(107.412778 157.322225)scale(0.088 -0.088)">
       <defs>
        <path d="M 525 4666 
L 3525 4666 
L 3525 4397 
L 1831 0 
L 1172 0 
L 2766 4134 
L 525 4134 
L 525 4666 
z
" id="DejaVuSans-37" transform="scale(0.015625)"/>
       </defs>
       <use xlink:href="#DejaVuSans-37"/>
       <use x="63.623047" xlink:href="#DejaVuSans-35"/>
      </g>
     </g>
    </g>
    <g id="xtick_5">
     <g id="line2d_9">
      <path clip-path="url(#pbba24cd773)" d="M 135.455869 145.6856 
L 135.455869 21.5 
" style="fill:none;stroke:#ffffff;"/>
     </g>
     <g id="line2d_10">
      <path d="M 135.455869 145.6856 
" style="fill:none;stroke:#333333;stroke-width:1.5;"/>
      <g>
       <use style="fill:#333333;stroke:#000000;" x="135.455869" xlink:href="#m96c9d4d552" y="145.6856"/>
      </g>
     </g>
     <g id="text_5">
      <!-- 100 -->
      <g style="fill:#4d4d4d;" transform="translate(127.057369 157.322225)scale(0.088 -0.088)">
       <defs>
        <path d="M 794 531 
L 1825 531 
L 1825 4091 
L 703 3866 
L 703 4441 
L 1819 4666 
L 2450 4666 
L 2450 531 
L 3481 531 
L 3481 0 
L 794 0 
L 794 531 
z
" id="DejaVuSans-31" transform="scale(0.015625)"/>
       </defs>
       <use xlink:href="#DejaVuSans-31"/>
       <use x="63.623047" xlink:href="#DejaVuSans-30"/>
       <use x="127.246094" xlink:href="#DejaVuSans-30"/>
      </g>
     </g>
    </g>
    <g id="xtick_6">
     <g id="line2d_11">
      <path clip-path="url(#pbba24cd773)" d="M 56.901551 145.6856 
L 56.901551 21.5 
" style="fill:none;stroke:#ffffff;stroke-width:0.5;"/>
     </g>
    </g>
    <g id="xtick_7">
     <g id="line2d_12">
      <path clip-path="url(#pbba24cd773)" d="M 79.345642 145.6856 
L 79.345642 21.5 
" style="fill:none;stroke:#ffffff;stroke-width:0.5;"/>
     </g>
    </g>
    <g id="xtick_8">
     <g id="line2d_13">
      <path clip-path="url(#pbba24cd773)" d="M 101.789733 145.6856 
L 101.789733 21.5 
" style="fill:none;stroke:#ffffff;stroke-width:0.5;"/>
     </g>
    </g>
    <g id="xtick_9">
     <g id="line2d_14">
      <path clip-path="url(#pbba24cd773)" d="M 124.233824 145.6856 
L 124.233824 21.5 
" style="fill:none;stroke:#ffffff;stroke-width:0.5;"/>
     </g>
    </g>
   </g>
   <g id="matplotlib.axis_2">
    <g id="ytick_1">
     <g id="line2d_15">
      <path clip-path="url(#pbba24cd773)" d="M 41.190688 117.535243 
L 139.944688 117.535243 
" style="fill:none;stroke:#ffffff;"/>
     </g>
     <g id="line2d_16">
      <path d="M 41.190688 117.535243 
" style="fill:none;stroke:#333333;stroke-width:1.5;"/>
      <defs>
       <path d="M 0 0 
L -2.75 0 
" id="m3fe17f19ea" style="stroke:#000000;"/>
      </defs>
      <g>
       <use style="fill:#333333;stroke:#000000;" x="41.190688" xlink:href="#m3fe17f19ea" y="117.535243"/>
      </g>
     </g>
     <g id="text_6">
      <!-- 0.4 -->
      <g style="fill:#4d4d4d;" transform="translate(22.245938 119.963493)scale(0.088 -0.088)">
       <defs>
        <path d="M 684 794 
L 1344 794 
L 1344 0 
L 684 0 
L 684 794 
z
" id="DejaVuSans-2e" transform="scale(0.015625)"/>
        <path d="M 2419 4116 
L 825 1625 
L 2419 1625 
L 2419 4116 
z
M 2253 4666 
L 3047 4666 
L 3047 1625 
L 3713 1625 
L 3713 1100 
L 3047 1100 
L 3047 0 
L 2419 0 
L 2419 1100 
L 313 1100 
L 313 1709 
L 2253 4666 
z
" id="DejaVuSans-34" transform="scale(0.015625)"/>
       </defs>
       <use xlink:href="#DejaVuSans-30"/>
       <use x="63.623047" xlink:href="#DejaVuSans-2e"/>
       <use x="95.410156" xlink:href="#DejaVuSans-34"/>
      </g>
     </g>
    </g>
    <g id="ytick_2">
     <g id="line2d_17">
      <path clip-path="url(#pbba24cd773)" d="M 41.190688 86.597759 
L 139.944688 86.597759 
" style="fill:none;stroke:#ffffff;"/>
     </g>
     <g id="line2d_18">
      <path d="M 41.190688 86.597759 
" style="fill:none;stroke:#333333;stroke-width:1.5;"/>
      <g>
       <use style="fill:#333333;stroke:#000000;" x="41.190688" xlink:href="#m3fe17f19ea" y="86.597759"/>
      </g>
     </g>
     <g id="text_7">
      <!-- 0.6 -->
      <g style="fill:#4d4d4d;" transform="translate(22.245938 89.026009)scale(0.088 -0.088)">
       <defs>
        <path d="M 2113 2584 
Q 1688 2584 1439 2293 
Q 1191 2003 1191 1497 
Q 1191 994 1439 701 
Q 1688 409 2113 409 
Q 2538 409 2786 701 
Q 3034 994 3034 1497 
Q 3034 2003 2786 2293 
Q 2538 2584 2113 2584 
z
M 3366 4563 
L 3366 3988 
Q 3128 4100 2886 4159 
Q 2644 4219 2406 4219 
Q 1781 4219 1451 3797 
Q 1122 3375 1075 2522 
Q 1259 2794 1537 2939 
Q 1816 3084 2150 3084 
Q 2853 3084 3261 2657 
Q 3669 2231 3669 1497 
Q 3669 778 3244 343 
Q 2819 -91 2113 -91 
Q 1303 -91 875 529 
Q 447 1150 447 2328 
Q 447 3434 972 4092 
Q 1497 4750 2381 4750 
Q 2619 4750 2861 4703 
Q 3103 4656 3366 4563 
z
" id="DejaVuSans-36" transform="scale(0.015625)"/>
       </defs>
       <use xlink:href="#DejaVuSans-30"/>
       <use x="63.623047" xlink:href="#DejaVuSans-2e"/>
       <use x="95.410156" xlink:href="#DejaVuSans-36"/>
      </g>
     </g>
    </g>
    <g id="ytick_3">
     <g id="line2d_19">
      <path clip-path="url(#pbba24cd773)" d="M 41.190688 55.660274 
L 139.944688 55.660274 
" style="fill:none;stroke:#ffffff;"/>
     </g>
     <g id="line2d_20">
      <path d="M 41.190688 55.660274 
" style="fill:none;stroke:#333333;stroke-width:1.5;"/>
      <g>
       <use style="fill:#333333;stroke:#000000;" x="41.190688" xlink:href="#m3fe17f19ea" y="55.660274"/>
      </g>
     </g>
     <g id="text_8">
      <!-- 0.8 -->
      <g style="fill:#4d4d4d;" transform="translate(22.245938 58.088524)scale(0.088 -0.088)">
       <defs>
        <path d="M 2034 2216 
Q 1584 2216 1326 1975 
Q 1069 1734 1069 1313 
Q 1069 891 1326 650 
Q 1584 409 2034 409 
Q 2484 409 2743 651 
Q 3003 894 3003 1313 
Q 3003 1734 2745 1975 
Q 2488 2216 2034 2216 
z
M 1403 2484 
Q 997 2584 770 2862 
Q 544 3141 544 3541 
Q 544 4100 942 4425 
Q 1341 4750 2034 4750 
Q 2731 4750 3128 4425 
Q 3525 4100 3525 3541 
Q 3525 3141 3298 2862 
Q 3072 2584 2669 2484 
Q 3125 2378 3379 2068 
Q 3634 1759 3634 1313 
Q 3634 634 3220 271 
Q 2806 -91 2034 -91 
Q 1263 -91 848 271 
Q 434 634 434 1313 
Q 434 1759 690 2068 
Q 947 2378 1403 2484 
z
M 1172 3481 
Q 1172 3119 1398 2916 
Q 1625 2713 2034 2713 
Q 2441 2713 2670 2916 
Q 2900 3119 2900 3481 
Q 2900 3844 2670 4047 
Q 2441 4250 2034 4250 
Q 1625 4250 1398 4047 
Q 1172 3844 1172 3481 
z
" id="DejaVuSans-38" transform="scale(0.015625)"/>
       </defs>
       <use xlink:href="#DejaVuSans-30"/>
       <use x="63.623047" xlink:href="#DejaVuSans-2e"/>
       <use x="95.410156" xlink:href="#DejaVuSans-38"/>
      </g>
     </g>
    </g>
    <g id="ytick_4">
     <g id="line2d_21">
      <path clip-path="url(#pbba24cd773)" d="M 41.190688 24.72279 
L 139.944688 24.72279 
" style="fill:none;stroke:#ffffff;"/>
     </g>
     <g id="line2d_22">
      <path d="M 41.190688 24.72279 
" style="fill:none;stroke:#333333;stroke-width:1.5;"/>
      <g>
       <use style="fill:#333333;stroke:#000000;" x="41.190688" xlink:href="#m3fe17f19ea" y="24.72279"/>
      </g>
     </g>
     <g id="text_9">
      <!-- 1 -->
      <g style="fill:#4d4d4d;" transform="translate(30.641688 27.15104)scale(0.088 -0.088)">
       <use xlink:href="#DejaVuSans-31"/>
      </g>
     </g>
    </g>
    <g id="ytick_5">
     <g id="line2d_23">
      <path clip-path="url(#pbba24cd773)" d="M 41.190688 133.003985 
L 139.944688 133.003985 
" style="fill:none;stroke:#ffffff;stroke-width:0.5;"/>
     </g>
    </g>
    <g id="ytick_6">
     <g id="line2d_24">
      <path clip-path="url(#pbba24cd773)" d="M 41.190688 102.066501 
L 139.944688 102.066501 
" style="fill:none;stroke:#ffffff;stroke-width:0.5;"/>
     </g>
    </g>
    <g id="ytick_7">
     <g id="line2d_25">
      <path clip-path="url(#pbba24cd773)" d="M 41.190688 71.129016 
L 139.944688 71.129016 
" style="fill:none;stroke:#ffffff;stroke-width:0.5;"/>
     </g>
    </g>
    <g id="ytick_8">
     <g id="line2d_26">
      <path clip-path="url(#pbba24cd773)" d="M 41.190688 40.191532 
L 139.944688 40.191532 
" style="fill:none;stroke:#ffffff;stroke-width:0.5;"/>
     </g>
    </g>
    <g id="text_10">
     <!-- Performance -->
     <g transform="translate(15.558281 117.636634)rotate(-90)scale(0.11 -0.11)">
      <defs>
       <path d="M 1259 4147 
L 1259 2394 
L 2053 2394 
Q 2494 2394 2734 2622 
Q 2975 2850 2975 3272 
Q 2975 3691 2734 3919 
Q 2494 4147 2053 4147 
L 1259 4147 
z
M 628 4666 
L 2053 4666 
Q 2838 4666 3239 4311 
Q 3641 3956 3641 3272 
Q 3641 2581 3239 2228 
Q 2838 1875 2053 1875 
L 1259 1875 
L 1259 0 
L 628 0 
L 628 4666 
z
" id="DejaVuSans-50" transform="scale(0.015625)"/>
       <path d="M 3597 1894 
L 3597 1613 
L 953 1613 
Q 991 1019 1311 708 
Q 1631 397 2203 397 
Q 2534 397 2845 478 
Q 3156 559 3463 722 
L 3463 178 
Q 3153 47 2828 -22 
Q 2503 -91 2169 -91 
Q 1331 -91 842 396 
Q 353 884 353 1716 
Q 353 2575 817 3079 
Q 1281 3584 2069 3584 
Q 2775 3584 3186 3129 
Q 3597 2675 3597 1894 
z
M 3022 2063 
Q 3016 2534 2758 2815 
Q 2500 3097 2075 3097 
Q 1594 3097 1305 2825 
Q 1016 2553 972 2059 
L 3022 2063 
z
" id="DejaVuSans-65" transform="scale(0.015625)"/>
       <path d="M 2631 2963 
Q 2534 3019 2420 3045 
Q 2306 3072 2169 3072 
Q 1681 3072 1420 2755 
Q 1159 2438 1159 1844 
L 1159 0 
L 581 0 
L 581 3500 
L 1159 3500 
L 1159 2956 
Q 1341 3275 1631 3429 
Q 1922 3584 2338 3584 
Q 2397 3584 2469 3576 
Q 2541 3569 2628 3553 
L 2631 2963 
z
" id="DejaVuSans-72" transform="scale(0.015625)"/>
       <path d="M 2375 4863 
L 2375 4384 
L 1825 4384 
Q 1516 4384 1395 4259 
Q 1275 4134 1275 3809 
L 1275 3500 
L 2222 3500 
L 2222 3053 
L 1275 3053 
L 1275 0 
L 697 0 
L 697 3053 
L 147 3053 
L 147 3500 
L 697 3500 
L 697 3744 
Q 697 4328 969 4595 
Q 1241 4863 1831 4863 
L 2375 4863 
z
" id="DejaVuSans-66" transform="scale(0.015625)"/>
       <path d="M 1959 3097 
Q 1497 3097 1228 2736 
Q 959 2375 959 1747 
Q 959 1119 1226 758 
Q 1494 397 1959 397 
Q 2419 397 2687 759 
Q 2956 1122 2956 1747 
Q 2956 2369 2687 2733 
Q 2419 3097 1959 3097 
z
M 1959 3584 
Q 2709 3584 3137 3096 
Q 3566 2609 3566 1747 
Q 3566 888 3137 398 
Q 2709 -91 1959 -91 
Q 1206 -91 779 398 
Q 353 888 353 1747 
Q 353 2609 779 3096 
Q 1206 3584 1959 3584 
z
" id="DejaVuSans-6f" transform="scale(0.015625)"/>
       <path d="M 3328 2828 
Q 3544 3216 3844 3400 
Q 4144 3584 4550 3584 
Q 5097 3584 5394 3201 
Q 5691 2819 5691 2113 
L 5691 0 
L 5113 0 
L 5113 2094 
Q 5113 2597 4934 2840 
Q 4756 3084 4391 3084 
Q 3944 3084 3684 2787 
Q 3425 2491 3425 1978 
L 3425 0 
L 2847 0 
L 2847 2094 
Q 2847 2600 2669 2842 
Q 2491 3084 2119 3084 
Q 1678 3084 1418 2786 
Q 1159 2488 1159 1978 
L 1159 0 
L 581 0 
L 581 3500 
L 1159 3500 
L 1159 2956 
Q 1356 3278 1631 3431 
Q 1906 3584 2284 3584 
Q 2666 3584 2933 3390 
Q 3200 3197 3328 2828 
z
" id="DejaVuSans-6d" transform="scale(0.015625)"/>
       <path d="M 2194 1759 
Q 1497 1759 1228 1600 
Q 959 1441 959 1056 
Q 959 750 1161 570 
Q 1363 391 1709 391 
Q 2188 391 2477 730 
Q 2766 1069 2766 1631 
L 2766 1759 
L 2194 1759 
z
M 3341 1997 
L 3341 0 
L 2766 0 
L 2766 531 
Q 2569 213 2275 61 
Q 1981 -91 1556 -91 
Q 1019 -91 701 211 
Q 384 513 384 1019 
Q 384 1609 779 1909 
Q 1175 2209 1959 2209 
L 2766 2209 
L 2766 2266 
Q 2766 2663 2505 2880 
Q 2244 3097 1772 3097 
Q 1472 3097 1187 3025 
Q 903 2953 641 2809 
L 641 3341 
Q 956 3463 1253 3523 
Q 1550 3584 1831 3584 
Q 2591 3584 2966 3190 
Q 3341 2797 3341 1997 
z
" id="DejaVuSans-61" transform="scale(0.015625)"/>
       <path d="M 3513 2113 
L 3513 0 
L 2938 0 
L 2938 2094 
Q 2938 2591 2744 2837 
Q 2550 3084 2163 3084 
Q 1697 3084 1428 2787 
Q 1159 2491 1159 1978 
L 1159 0 
L 581 0 
L 581 3500 
L 1159 3500 
L 1159 2956 
Q 1366 3272 1645 3428 
Q 1925 3584 2291 3584 
Q 2894 3584 3203 3211 
Q 3513 2838 3513 2113 
z
" id="DejaVuSans-6e" transform="scale(0.015625)"/>
       <path d="M 3122 3366 
L 3122 2828 
Q 2878 2963 2633 3030 
Q 2388 3097 2138 3097 
Q 1578 3097 1268 2742 
Q 959 2388 959 1747 
Q 959 1106 1268 751 
Q 1578 397 2138 397 
Q 2388 397 2633 464 
Q 2878 531 3122 666 
L 3122 134 
Q 2881 22 2623 -34 
Q 2366 -91 2075 -91 
Q 1284 -91 818 406 
Q 353 903 353 1747 
Q 353 2603 823 3093 
Q 1294 3584 2113 3584 
Q 2378 3584 2631 3529 
Q 2884 3475 3122 3366 
z
" id="DejaVuSans-63" transform="scale(0.015625)"/>
      </defs>
      <use xlink:href="#DejaVuSans-50"/>
      <use x="56.677734" xlink:href="#DejaVuSans-65"/>
      <use x="118.201172" xlink:href="#DejaVuSans-72"/>
      <use x="159.314453" xlink:href="#DejaVuSans-66"/>
      <use x="194.519531" xlink:href="#DejaVuSans-6f"/>
      <use x="255.701172" xlink:href="#DejaVuSans-72"/>
      <use x="295.064453" xlink:href="#DejaVuSans-6d"/>
      <use x="392.476562" xlink:href="#DejaVuSans-61"/>
      <use x="453.755859" xlink:href="#DejaVuSans-6e"/>
      <use x="517.134766" xlink:href="#DejaVuSans-63"/>
      <use x="572.115234" xlink:href="#DejaVuSans-65"/>
     </g>
    </g>
   </g>
   <g id="line2d_27">
    <path clip-path="url(#pbba24cd773)" d="M 45.679506 40.139815 
L 54.657142 43.297524 
L 63.634778 38.767564 
L 72.612415 40.730385 
L 81.590051 54.580633 
L 90.567688 47.934456 
L 99.545324 47.781447 
L 108.52296 60.149687 
L 117.500597 67.575721 
L 126.478233 72.210301 
L 135.455869 127.877642 
" style="fill:none;stroke:#db5f57;stroke-width:0.886227;"/>
   </g>
   <g id="line2d_28">
    <path clip-path="url(#pbba24cd773)" d="M 45.679506 38.48429 
L 54.657142 36.447026 
L 63.634778 38.035254 
L 72.612415 34.703324 
L 81.590051 37.39125 
L 90.567688 39.425555 
L 99.545324 39.308074 
L 108.52296 45.179752 
L 117.500597 59.07935 
L 126.478233 76.965937 
L 135.455869 128.897649 
" style="fill:none;stroke:#57d3db;stroke-width:0.886227;"/>
   </g>
   <g id="PolyCollection_1">
    <path clip-path="url(#pbba24cd773)" d="M 45.679506 30.870904 
L 45.679506 49.408726 
L 54.657142 53.12445 
L 63.634778 42.785604 
L 72.612415 45.862195 
L 81.590051 57.77635 
L 90.567688 52.960909 
L 99.545324 51.196485 
L 108.52296 63.11795 
L 117.500597 72.659566 
L 126.478233 77.200948 
L 135.455869 136.017918 
L 135.455869 121.397623 
L 135.455869 121.397623 
L 126.478233 68.285486 
L 117.500597 60.589926 
L 108.52296 52.66026 
L 99.545324 43.941806 
L 90.567688 45.981575 
L 81.590051 51.384916 
L 72.612415 33.85371 
L 63.634778 34.436844 
L 54.657142 34.68838 
L 45.679506 30.870904 
z
" style="fill:#db5f57;fill-opacity:0.34902;"/>
   </g>
   <g id="PolyCollection_2">
    <path clip-path="url(#pbba24cd773)" d="M 45.679506 30.931456 
L 45.679506 46.16155 
L 54.657142 41.15735 
L 63.634778 45.01068 
L 72.612415 39.276532 
L 81.590051 47.219581 
L 90.567688 45.09516 
L 99.545324 41.920159 
L 108.52296 51.498102 
L 117.500597 66.296848 
L 126.478233 80.468117 
L 135.455869 140.0408 
L 135.455869 124.46214 
L 135.455869 124.46214 
L 126.478233 75.095216 
L 117.500597 52.105479 
L 108.52296 38.774587 
L 99.545324 33.215988 
L 90.567688 35.781994 
L 81.590051 30.931189 
L 72.612415 29.554407 
L 63.634778 33.101847 
L 54.657142 33.260998 
L 45.679506 30.931456 
z
" style="fill:#57d3db;fill-opacity:0.34902;"/>
   </g>
   <g id="patch_3">
    <path d="M 41.190688 21.5 
L 139.944688 21.5 
L 139.944688 7.2 
L 41.190688 7.2 
z
" style="fill:#d9d9d9;"/>
   </g>
   <g id="text_11">
    <!-- IMDB -->
    <g style="fill:#1a1a1a;" transform="translate(79.0665 16.77825)scale(0.088 -0.088)">
     <defs>
      <path d="M 628 4666 
L 1259 4666 
L 1259 0 
L 628 0 
L 628 4666 
z
" id="DejaVuSans-49" transform="scale(0.015625)"/>
      <path d="M 628 4666 
L 1569 4666 
L 2759 1491 
L 3956 4666 
L 4897 4666 
L 4897 0 
L 4281 0 
L 4281 4097 
L 3078 897 
L 2444 897 
L 1241 4097 
L 1241 0 
L 628 0 
L 628 4666 
z
" id="DejaVuSans-4d" transform="scale(0.015625)"/>
      <path d="M 1259 4147 
L 1259 519 
L 2022 519 
Q 2988 519 3436 956 
Q 3884 1394 3884 2338 
Q 3884 3275 3436 3711 
Q 2988 4147 2022 4147 
L 1259 4147 
z
M 628 4666 
L 1925 4666 
Q 3281 4666 3915 4102 
Q 4550 3538 4550 2338 
Q 4550 1131 3912 565 
Q 3275 0 1925 0 
L 628 0 
L 628 4666 
z
" id="DejaVuSans-44" transform="scale(0.015625)"/>
      <path d="M 1259 2228 
L 1259 519 
L 2272 519 
Q 2781 519 3026 730 
Q 3272 941 3272 1375 
Q 3272 1813 3026 2020 
Q 2781 2228 2272 2228 
L 1259 2228 
z
M 1259 4147 
L 1259 2741 
L 2194 2741 
Q 2656 2741 2882 2914 
Q 3109 3088 3109 3444 
Q 3109 3797 2882 3972 
Q 2656 4147 2194 4147 
L 1259 4147 
z
M 628 4666 
L 2241 4666 
Q 2963 4666 3353 4366 
Q 3744 4066 3744 3513 
Q 3744 3084 3544 2831 
Q 3344 2578 2956 2516 
Q 3422 2416 3680 2098 
Q 3938 1781 3938 1306 
Q 3938 681 3513 340 
Q 3088 0 2303 0 
L 628 0 
L 628 4666 
z
" id="DejaVuSans-42" transform="scale(0.015625)"/>
     </defs>
     <use xlink:href="#DejaVuSans-49"/>
     <use x="29.492188" xlink:href="#DejaVuSans-4d"/>
     <use x="115.771484" xlink:href="#DejaVuSans-44"/>
     <use x="192.773438" xlink:href="#DejaVuSans-42"/>
    </g>
   </g>
   <g id="patch_4">
    <path d="M 99.368875 249.363413 
L 279.4725 249.363413 
L 279.4725 152.8856 
L 99.368875 152.8856 
z
" style="fill:#ffffff;"/>
   </g>
   <g id="patch_5">
    <path clip-path="url(#pfa171b69ec)" d="M 111.568875 195.971538 
L 127.408875 195.971538 
L 127.408875 180.131538 
L 111.568875 180.131538 
z
" style="fill:#f2f2f2;"/>
   </g>
   <g id="line2d_29">
    <path clip-path="url(#pfa171b69ec)" d="M 111.568875 188.051538 
L 127.408875 188.051538 
" style="fill:none;stroke:#db5f57;stroke-width:0.886227;"/>
   </g>
   <g id="text_12">
    <!-- BiLSTM-Attention -->
    <g transform="translate(130.408875 190.479788)scale(0.088 -0.088)">
     <defs>
      <path d="M 603 3500 
L 1178 3500 
L 1178 0 
L 603 0 
L 603 3500 
z
M 603 4863 
L 1178 4863 
L 1178 4134 
L 603 4134 
L 603 4863 
z
" id="DejaVuSans-69" transform="scale(0.015625)"/>
      <path d="M 628 4666 
L 1259 4666 
L 1259 531 
L 3531 531 
L 3531 0 
L 628 0 
L 628 4666 
z
" id="DejaVuSans-4c" transform="scale(0.015625)"/>
      <path d="M 3425 4513 
L 3425 3897 
Q 3066 4069 2747 4153 
Q 2428 4238 2131 4238 
Q 1616 4238 1336 4038 
Q 1056 3838 1056 3469 
Q 1056 3159 1242 3001 
Q 1428 2844 1947 2747 
L 2328 2669 
Q 3034 2534 3370 2195 
Q 3706 1856 3706 1288 
Q 3706 609 3251 259 
Q 2797 -91 1919 -91 
Q 1588 -91 1214 -16 
Q 841 59 441 206 
L 441 856 
Q 825 641 1194 531 
Q 1563 422 1919 422 
Q 2459 422 2753 634 
Q 3047 847 3047 1241 
Q 3047 1584 2836 1778 
Q 2625 1972 2144 2069 
L 1759 2144 
Q 1053 2284 737 2584 
Q 422 2884 422 3419 
Q 422 4038 858 4394 
Q 1294 4750 2059 4750 
Q 2388 4750 2728 4690 
Q 3069 4631 3425 4513 
z
" id="DejaVuSans-53" transform="scale(0.015625)"/>
      <path d="M -19 4666 
L 3928 4666 
L 3928 4134 
L 2272 4134 
L 2272 0 
L 1638 0 
L 1638 4134 
L -19 4134 
L -19 4666 
z
" id="DejaVuSans-54" transform="scale(0.015625)"/>
      <path d="M 313 2009 
L 1997 2009 
L 1997 1497 
L 313 1497 
L 313 2009 
z
" id="DejaVuSans-2d" transform="scale(0.015625)"/>
      <path d="M 2188 4044 
L 1331 1722 
L 3047 1722 
L 2188 4044 
z
M 1831 4666 
L 2547 4666 
L 4325 0 
L 3669 0 
L 3244 1197 
L 1141 1197 
L 716 0 
L 50 0 
L 1831 4666 
z
" id="DejaVuSans-41" transform="scale(0.015625)"/>
      <path d="M 1172 4494 
L 1172 3500 
L 2356 3500 
L 2356 3053 
L 1172 3053 
L 1172 1153 
Q 1172 725 1289 603 
Q 1406 481 1766 481 
L 2356 481 
L 2356 0 
L 1766 0 
Q 1100 0 847 248 
Q 594 497 594 1153 
L 594 3053 
L 172 3053 
L 172 3500 
L 594 3500 
L 594 4494 
L 1172 4494 
z
" id="DejaVuSans-74" transform="scale(0.015625)"/>
     </defs>
     <use xlink:href="#DejaVuSans-42"/>
     <use x="68.603516" xlink:href="#DejaVuSans-69"/>
     <use x="96.386719" xlink:href="#DejaVuSans-4c"/>
     <use x="152.099609" xlink:href="#DejaVuSans-53"/>
     <use x="215.576172" xlink:href="#DejaVuSans-54"/>
     <use x="276.660156" xlink:href="#DejaVuSans-4d"/>
     <use x="362.939453" xlink:href="#DejaVuSans-2d"/>
     <use x="396.773438" xlink:href="#DejaVuSans-41"/>
     <use x="463.431641" xlink:href="#DejaVuSans-74"/>
     <use x="502.640625" xlink:href="#DejaVuSans-74"/>
     <use x="541.849609" xlink:href="#DejaVuSans-65"/>
     <use x="603.373047" xlink:href="#DejaVuSans-6e"/>
     <use x="666.751953" xlink:href="#DejaVuSans-74"/>
     <use x="705.960938" xlink:href="#DejaVuSans-69"/>
     <use x="733.744141" xlink:href="#DejaVuSans-6f"/>
     <use x="794.925781" xlink:href="#DejaVuSans-6e"/>
    </g>
   </g>
   <g id="patch_6">
    <path clip-path="url(#p1b203bf7c1)" d="M 210.939 195.971538 
L 226.779 195.971538 
L 226.779 180.131538 
L 210.939 180.131538 
z
" style="fill:#f2f2f2;"/>
   </g>
   <g id="line2d_30">
    <path clip-path="url(#p1b203bf7c1)" d="M 210.939 188.051538 
L 226.779 188.051538 
" style="fill:none;stroke:#57d3db;stroke-width:0.886227;"/>
   </g>
   <g id="text_13">
    <!-- RoBERTa -->
    <g transform="translate(229.779 190.479788)scale(0.088 -0.088)">
     <defs>
      <path d="M 2841 2188 
Q 3044 2119 3236 1894 
Q 3428 1669 3622 1275 
L 4263 0 
L 3584 0 
L 2988 1197 
Q 2756 1666 2539 1819 
Q 2322 1972 1947 1972 
L 1259 1972 
L 1259 0 
L 628 0 
L 628 4666 
L 2053 4666 
Q 2853 4666 3247 4331 
Q 3641 3997 3641 3322 
Q 3641 2881 3436 2590 
Q 3231 2300 2841 2188 
z
M 1259 4147 
L 1259 2491 
L 2053 2491 
Q 2509 2491 2742 2702 
Q 2975 2913 2975 3322 
Q 2975 3731 2742 3939 
Q 2509 4147 2053 4147 
L 1259 4147 
z
" id="DejaVuSans-52" transform="scale(0.015625)"/>
      <path d="M 628 4666 
L 3578 4666 
L 3578 4134 
L 1259 4134 
L 1259 2753 
L 3481 2753 
L 3481 2222 
L 1259 2222 
L 1259 531 
L 3634 531 
L 3634 0 
L 628 0 
L 628 4666 
z
" id="DejaVuSans-45" transform="scale(0.015625)"/>
     </defs>
     <use xlink:href="#DejaVuSans-52"/>
     <use x="64.982422" xlink:href="#DejaVuSans-6f"/>
     <use x="126.164062" xlink:href="#DejaVuSans-42"/>
     <use x="194.767578" xlink:href="#DejaVuSans-45"/>
     <use x="257.951172" xlink:href="#DejaVuSans-52"/>
     <use x="320.183594" xlink:href="#DejaVuSans-54"/>
     <use x="364.767578" xlink:href="#DejaVuSans-61"/>
    </g>
   </g>
   <g id="text_14">
    <!-- model_type_pretty -->
    <g transform="translate(111.568875 217.212163)scale(0.11 -0.11)">
     <defs>
      <path d="M 2906 2969 
L 2906 4863 
L 3481 4863 
L 3481 0 
L 2906 0 
L 2906 525 
Q 2725 213 2448 61 
Q 2172 -91 1784 -91 
Q 1150 -91 751 415 
Q 353 922 353 1747 
Q 353 2572 751 3078 
Q 1150 3584 1784 3584 
Q 2172 3584 2448 3432 
Q 2725 3281 2906 2969 
z
M 947 1747 
Q 947 1113 1208 752 
Q 1469 391 1925 391 
Q 2381 391 2643 752 
Q 2906 1113 2906 1747 
Q 2906 2381 2643 2742 
Q 2381 3103 1925 3103 
Q 1469 3103 1208 2742 
Q 947 2381 947 1747 
z
" id="DejaVuSans-64" transform="scale(0.015625)"/>
      <path d="M 603 4863 
L 1178 4863 
L 1178 0 
L 603 0 
L 603 4863 
z
" id="DejaVuSans-6c" transform="scale(0.015625)"/>
      <path d="M 3263 -1063 
L 3263 -1509 
L -63 -1509 
L -63 -1063 
L 3263 -1063 
z
" id="DejaVuSans-5f" transform="scale(0.015625)"/>
      <path d="M 2059 -325 
Q 1816 -950 1584 -1140 
Q 1353 -1331 966 -1331 
L 506 -1331 
L 506 -850 
L 844 -850 
Q 1081 -850 1212 -737 
Q 1344 -625 1503 -206 
L 1606 56 
L 191 3500 
L 800 3500 
L 1894 763 
L 2988 3500 
L 3597 3500 
L 2059 -325 
z
" id="DejaVuSans-79" transform="scale(0.015625)"/>
      <path d="M 1159 525 
L 1159 -1331 
L 581 -1331 
L 581 3500 
L 1159 3500 
L 1159 2969 
Q 1341 3281 1617 3432 
Q 1894 3584 2278 3584 
Q 2916 3584 3314 3078 
Q 3713 2572 3713 1747 
Q 3713 922 3314 415 
Q 2916 -91 2278 -91 
Q 1894 -91 1617 61 
Q 1341 213 1159 525 
z
M 3116 1747 
Q 3116 2381 2855 2742 
Q 2594 3103 2138 3103 
Q 1681 3103 1420 2742 
Q 1159 2381 1159 1747 
Q 1159 1113 1420 752 
Q 1681 391 2138 391 
Q 2594 391 2855 752 
Q 3116 1113 3116 1747 
z
" id="DejaVuSans-70" transform="scale(0.015625)"/>
     </defs>
     <use xlink:href="#DejaVuSans-6d"/>
     <use x="97.412109" xlink:href="#DejaVuSans-6f"/>
     <use x="158.59375" xlink:href="#DejaVuSans-64"/>
     <use x="222.070312" xlink:href="#DejaVuSans-65"/>
     <use x="283.59375" xlink:href="#DejaVuSans-6c"/>
     <use x="311.376953" xlink:href="#DejaVuSans-5f"/>
     <use x="361.376953" xlink:href="#DejaVuSans-74"/>
     <use x="400.585938" xlink:href="#DejaVuSans-79"/>
     <use x="459.765625" xlink:href="#DejaVuSans-70"/>
     <use x="523.242188" xlink:href="#DejaVuSans-65"/>
     <use x="584.765625" xlink:href="#DejaVuSans-5f"/>
     <use x="634.765625" xlink:href="#DejaVuSans-70"/>
     <use x="698.242188" xlink:href="#DejaVuSans-72"/>
     <use x="737.105469" xlink:href="#DejaVuSans-65"/>
     <use x="798.628906" xlink:href="#DejaVuSans-74"/>
     <use x="837.837891" xlink:href="#DejaVuSans-74"/>
     <use x="877.046875" xlink:href="#DejaVuSans-79"/>
    </g>
   </g>
   <g id="patch_7">
    <path clip-path="url(#p7b26bbfa03)" d="M 111.568875 237.163413 
L 127.408875 237.163413 
L 127.408875 221.323413 
L 111.568875 221.323413 
z
" style="fill:#f2f2f2;"/>
   </g>
   <g id="patch_8">
    <path clip-path="url(#p7b26bbfa03)" d="M 111.568875 237.163413 
L 127.408875 237.163413 
L 127.408875 221.323413 
L 111.568875 221.323413 
z
" style="fill:#db5f57;fill-opacity:0.34902;"/>
   </g>
   <g id="text_15">
    <!-- BiLSTM-Attention -->
    <g transform="translate(130.408875 231.671663)scale(0.088 -0.088)">
     <use xlink:href="#DejaVuSans-42"/>
     <use x="68.603516" xlink:href="#DejaVuSans-69"/>
     <use x="96.386719" xlink:href="#DejaVuSans-4c"/>
     <use x="152.099609" xlink:href="#DejaVuSans-53"/>
     <use x="215.576172" xlink:href="#DejaVuSans-54"/>
     <use x="276.660156" xlink:href="#DejaVuSans-4d"/>
     <use x="362.939453" xlink:href="#DejaVuSans-2d"/>
     <use x="396.773438" xlink:href="#DejaVuSans-41"/>
     <use x="463.431641" xlink:href="#DejaVuSans-74"/>
     <use x="502.640625" xlink:href="#DejaVuSans-74"/>
     <use x="541.849609" xlink:href="#DejaVuSans-65"/>
     <use x="603.373047" xlink:href="#DejaVuSans-6e"/>
     <use x="666.751953" xlink:href="#DejaVuSans-74"/>
     <use x="705.960938" xlink:href="#DejaVuSans-69"/>
     <use x="733.744141" xlink:href="#DejaVuSans-6f"/>
     <use x="794.925781" xlink:href="#DejaVuSans-6e"/>
    </g>
   </g>
   <g id="patch_9">
    <path clip-path="url(#pafe23cbd13)" d="M 210.939 237.163413 
L 226.779 237.163413 
L 226.779 221.323413 
L 210.939 221.323413 
z
" style="fill:#f2f2f2;"/>
   </g>
   <g id="patch_10">
    <path clip-path="url(#pafe23cbd13)" d="M 210.939 237.163413 
L 226.779 237.163413 
L 226.779 221.323413 
L 210.939 221.323413 
z
" style="fill:#57d3db;fill-opacity:0.34902;"/>
   </g>
   <g id="text_16">
    <!-- RoBERTa -->
    <g transform="translate(229.779 231.671663)scale(0.088 -0.088)">
     <use xlink:href="#DejaVuSans-52"/>
     <use x="64.982422" xlink:href="#DejaVuSans-6f"/>
     <use x="126.164062" xlink:href="#DejaVuSans-42"/>
     <use x="194.767578" xlink:href="#DejaVuSans-45"/>
     <use x="257.951172" xlink:href="#DejaVuSans-52"/>
     <use x="320.183594" xlink:href="#DejaVuSans-54"/>
     <use x="364.767578" xlink:href="#DejaVuSans-61"/>
    </g>
   </g>
  </g>
  <g id="axes_2">
   <g id="patch_11">
    <path d="M 144.984688 145.6856 
L 243.738688 145.6856 
L 243.738688 21.5 
L 144.984688 21.5 
z
" style="fill:#ebebeb;"/>
   </g>
   <g id="matplotlib.axis_3">
    <g id="xtick_10">
     <g id="line2d_31">
      <path clip-path="url(#p695d334c08)" d="M 149.473506 145.6856 
L 149.473506 21.5 
" style="fill:none;stroke:#ffffff;stroke-linecap:square;"/>
     </g>
     <g id="line2d_32">
      <path d="M 149.473506 145.6856 
" style="fill:none;stroke:#333333;stroke-linecap:square;stroke-width:1.5;"/>
      <g>
       <use style="fill:#333333;stroke:#000000;" x="149.473506" xlink:href="#m96c9d4d552" y="145.6856"/>
      </g>
     </g>
     <g id="text_17">
      <!-- 0 -->
      <g style="fill:#4d4d4d;" transform="translate(146.674006 157.322225)scale(0.088 -0.088)">
       <use xlink:href="#DejaVuSans-30"/>
      </g>
     </g>
    </g>
    <g id="xtick_11">
     <g id="line2d_33">
      <path clip-path="url(#p695d334c08)" d="M 171.917597 145.6856 
L 171.917597 21.5 
" style="fill:none;stroke:#ffffff;stroke-linecap:square;"/>
     </g>
     <g id="line2d_34">
      <path d="M 171.917597 145.6856 
" style="fill:none;stroke:#333333;stroke-linecap:square;stroke-width:1.5;"/>
      <g>
       <use style="fill:#333333;stroke:#000000;" x="171.917597" xlink:href="#m96c9d4d552" y="145.6856"/>
      </g>
     </g>
     <g id="text_18">
      <!-- 25 -->
      <g style="fill:#4d4d4d;" transform="translate(166.318597 157.322225)scale(0.088 -0.088)">
       <use xlink:href="#DejaVuSans-32"/>
       <use x="63.623047" xlink:href="#DejaVuSans-35"/>
      </g>
     </g>
    </g>
    <g id="xtick_12">
     <g id="line2d_35">
      <path clip-path="url(#p695d334c08)" d="M 194.361688 145.6856 
L 194.361688 21.5 
" style="fill:none;stroke:#ffffff;stroke-linecap:square;"/>
     </g>
     <g id="line2d_36">
      <path d="M 194.361688 145.6856 
" style="fill:none;stroke:#333333;stroke-linecap:square;stroke-width:1.5;"/>
      <g>
       <use style="fill:#333333;stroke:#000000;" x="194.361688" xlink:href="#m96c9d4d552" y="145.6856"/>
      </g>
     </g>
     <g id="text_19">
      <!-- 50 -->
      <g style="fill:#4d4d4d;" transform="translate(188.762688 157.322225)scale(0.088 -0.088)">
       <use xlink:href="#DejaVuSans-35"/>
       <use x="63.623047" xlink:href="#DejaVuSans-30"/>
      </g>
     </g>
    </g>
    <g id="xtick_13">
     <g id="line2d_37">
      <path clip-path="url(#p695d334c08)" d="M 216.805778 145.6856 
L 216.805778 21.5 
" style="fill:none;stroke:#ffffff;stroke-linecap:square;"/>
     </g>
     <g id="line2d_38">
      <path d="M 216.805778 145.6856 
" style="fill:none;stroke:#333333;stroke-linecap:square;stroke-width:1.5;"/>
      <g>
       <use style="fill:#333333;stroke:#000000;" x="216.805778" xlink:href="#m96c9d4d552" y="145.6856"/>
      </g>
     </g>
     <g id="text_20">
      <!-- 75 -->
      <g style="fill:#4d4d4d;" transform="translate(211.206778 157.322225)scale(0.088 -0.088)">
       <use xlink:href="#DejaVuSans-37"/>
       <use x="63.623047" xlink:href="#DejaVuSans-35"/>
      </g>
     </g>
    </g>
    <g id="xtick_14">
     <g id="line2d_39">
      <path clip-path="url(#p695d334c08)" d="M 239.249869 145.6856 
L 239.249869 21.5 
" style="fill:none;stroke:#ffffff;stroke-linecap:square;"/>
     </g>
     <g id="line2d_40">
      <path d="M 239.249869 145.6856 
" style="fill:none;stroke:#333333;stroke-linecap:square;stroke-width:1.5;"/>
      <g>
       <use style="fill:#333333;stroke:#000000;" x="239.249869" xlink:href="#m96c9d4d552" y="145.6856"/>
      </g>
     </g>
     <g id="text_21">
      <!-- 100 -->
      <g style="fill:#4d4d4d;" transform="translate(230.851369 157.322225)scale(0.088 -0.088)">
       <use xlink:href="#DejaVuSans-31"/>
       <use x="63.623047" xlink:href="#DejaVuSans-30"/>
       <use x="127.246094" xlink:href="#DejaVuSans-30"/>
      </g>
     </g>
    </g>
    <g id="xtick_15">
     <g id="line2d_41">
      <path clip-path="url(#p695d334c08)" d="M 160.695551 145.6856 
L 160.695551 21.5 
" style="fill:none;stroke:#ffffff;stroke-linecap:square;stroke-width:0.5;"/>
     </g>
    </g>
    <g id="xtick_16">
     <g id="line2d_42">
      <path clip-path="url(#p695d334c08)" d="M 183.139642 145.6856 
L 183.139642 21.5 
" style="fill:none;stroke:#ffffff;stroke-linecap:square;stroke-width:0.5;"/>
     </g>
    </g>
    <g id="xtick_17">
     <g id="line2d_43">
      <path clip-path="url(#p695d334c08)" d="M 205.583733 145.6856 
L 205.583733 21.5 
" style="fill:none;stroke:#ffffff;stroke-linecap:square;stroke-width:0.5;"/>
     </g>
    </g>
    <g id="xtick_18">
     <g id="line2d_44">
      <path clip-path="url(#p695d334c08)" d="M 228.027824 145.6856 
L 228.027824 21.5 
" style="fill:none;stroke:#ffffff;stroke-linecap:square;stroke-width:0.5;"/>
     </g>
    </g>
   </g>
   <g id="matplotlib.axis_4">
    <g id="ytick_9">
     <g id="line2d_45">
      <path clip-path="url(#p695d334c08)" d="M 144.984688 117.535243 
L 243.738688 117.535243 
" style="fill:none;stroke:#ffffff;stroke-linecap:square;"/>
     </g>
    </g>
    <g id="ytick_10">
     <g id="line2d_46">
      <path clip-path="url(#p695d334c08)" d="M 144.984688 86.597759 
L 243.738688 86.597759 
" style="fill:none;stroke:#ffffff;stroke-linecap:square;"/>
     </g>
    </g>
    <g id="ytick_11">
     <g id="line2d_47">
      <path clip-path="url(#p695d334c08)" d="M 144.984688 55.660274 
L 243.738688 55.660274 
" style="fill:none;stroke:#ffffff;stroke-linecap:square;"/>
     </g>
    </g>
    <g id="ytick_12">
     <g id="line2d_48">
      <path clip-path="url(#p695d334c08)" d="M 144.984688 24.72279 
L 243.738688 24.72279 
" style="fill:none;stroke:#ffffff;stroke-linecap:square;"/>
     </g>
    </g>
    <g id="ytick_13">
     <g id="line2d_49">
      <path clip-path="url(#p695d334c08)" d="M 144.984688 133.003985 
L 243.738688 133.003985 
" style="fill:none;stroke:#ffffff;stroke-linecap:square;stroke-width:0.5;"/>
     </g>
    </g>
    <g id="ytick_14">
     <g id="line2d_50">
      <path clip-path="url(#p695d334c08)" d="M 144.984688 102.066501 
L 243.738688 102.066501 
" style="fill:none;stroke:#ffffff;stroke-linecap:square;stroke-width:0.5;"/>
     </g>
    </g>
    <g id="ytick_15">
     <g id="line2d_51">
      <path clip-path="url(#p695d334c08)" d="M 144.984688 71.129016 
L 243.738688 71.129016 
" style="fill:none;stroke:#ffffff;stroke-linecap:square;stroke-width:0.5;"/>
     </g>
    </g>
    <g id="ytick_16">
     <g id="line2d_52">
      <path clip-path="url(#p695d334c08)" d="M 144.984688 40.191532 
L 243.738688 40.191532 
" style="fill:none;stroke:#ffffff;stroke-linecap:square;stroke-width:0.5;"/>
     </g>
    </g>
   </g>
   <g id="line2d_53">
    <path clip-path="url(#p695d334c08)" d="M 149.473506 58.285051 
L 158.451142 58.254614 
L 167.428778 60.006381 
L 176.406415 62.495643 
L 185.384051 67.539183 
L 194.361688 67.213436 
L 203.339324 72.069513 
L 212.31696 78.23185 
L 221.294597 78.108229 
L 230.272233 76.274246 
L 239.249869 68.061321 
" style="fill:none;stroke:#db5f57;stroke-width:0.886227;"/>
   </g>
   <g id="line2d_54">
    <path clip-path="url(#p695d334c08)" d="M 149.473506 35.885618 
L 158.451142 35.723331 
L 167.428778 43.874743 
L 176.406415 41.184221 
L 185.384051 49.597479 
L 194.361688 48.15452 
L 203.339324 53.656482 
L 212.31696 55.200149 
L 221.294597 61.204263 
L 230.272233 63.858401 
L 239.249869 72.194012 
" style="fill:none;stroke:#57d3db;stroke-width:0.886227;"/>
   </g>
   <g id="PolyCollection_3">
    <path clip-path="url(#p695d334c08)" d="M 149.473506 54.033851 
L 149.473506 60.859505 
L 158.451142 63.421295 
L 167.428778 64.11473 
L 176.406415 70.901223 
L 185.384051 69.624415 
L 194.361688 72.580042 
L 203.339324 77.842465 
L 212.31696 80.734105 
L 221.294597 87.28689 
L 230.272233 87.530843 
L 239.249869 71.260515 
L 239.249869 65.192527 
L 239.249869 65.192527 
L 230.272233 66.815287 
L 221.294597 70.184456 
L 212.31696 75.700711 
L 203.339324 68.663271 
L 194.361688 62.363425 
L 185.384051 65.839612 
L 176.406415 58.932923 
L 167.428778 53.258129 
L 158.451142 54.544187 
L 149.473506 54.033851 
z
" style="fill:#db5f57;fill-opacity:0.34902;"/>
   </g>
   <g id="PolyCollection_4">
    <path clip-path="url(#p695d334c08)" d="M 149.473506 32.114037 
L 149.473506 38.394112 
L 158.451142 42.864522 
L 167.428778 47.747406 
L 176.406415 46.622088 
L 185.384051 56.287176 
L 194.361688 52.481152 
L 203.339324 57.462426 
L 212.31696 59.287409 
L 221.294597 69.390489 
L 230.272233 73.077754 
L 239.249869 74.865347 
L 239.249869 68.664719 
L 239.249869 68.664719 
L 230.272233 59.13682 
L 221.294597 55.686601 
L 212.31696 49.469212 
L 203.339324 49.204244 
L 194.361688 45.311486 
L 185.384051 46.424045 
L 176.406415 38.89033 
L 167.428778 41.562903 
L 158.451142 29.212469 
L 149.473506 32.114037 
z
" style="fill:#57d3db;fill-opacity:0.34902;"/>
   </g>
   <g id="patch_12">
    <path d="M 144.984688 21.5 
L 243.738688 21.5 
L 243.738688 7.2 
L 144.984688 7.2 
z
" style="fill:#d9d9d9;"/>
   </g>
   <g id="text_22">
    <!-- SNLI -->
    <g style="fill:#1a1a1a;" transform="translate(184.527 16.77825)scale(0.088 -0.088)">
     <defs>
      <path d="M 628 4666 
L 1478 4666 
L 3547 763 
L 3547 4666 
L 4159 4666 
L 4159 0 
L 3309 0 
L 1241 3903 
L 1241 0 
L 628 0 
L 628 4666 
z
" id="DejaVuSans-4e" transform="scale(0.015625)"/>
     </defs>
     <use xlink:href="#DejaVuSans-53"/>
     <use x="63.476562" xlink:href="#DejaVuSans-4e"/>
     <use x="138.28125" xlink:href="#DejaVuSans-4c"/>
     <use x="193.994141" xlink:href="#DejaVuSans-49"/>
    </g>
   </g>
  </g>
  <g id="axes_3">
   <g id="patch_13">
    <path d="M 248.778688 145.6856 
L 347.532688 145.6856 
L 347.532688 21.5 
L 248.778688 21.5 
z
" style="fill:#ebebeb;"/>
   </g>
   <g id="matplotlib.axis_5">
    <g id="xtick_19">
     <g id="line2d_55">
      <path clip-path="url(#p34b243c7b8)" d="M 253.267506 145.6856 
L 253.267506 21.5 
" style="fill:none;stroke:#ffffff;stroke-linecap:square;"/>
     </g>
     <g id="line2d_56">
      <path d="M 253.267506 145.6856 
" style="fill:none;stroke:#333333;stroke-linecap:square;stroke-width:1.5;"/>
      <g>
       <use style="fill:#333333;stroke:#000000;" x="253.267506" xlink:href="#m96c9d4d552" y="145.6856"/>
      </g>
     </g>
     <g id="text_23">
      <!-- 0 -->
      <g style="fill:#4d4d4d;" transform="translate(250.468006 157.322225)scale(0.088 -0.088)">
       <use xlink:href="#DejaVuSans-30"/>
      </g>
     </g>
    </g>
    <g id="xtick_20">
     <g id="line2d_57">
      <path clip-path="url(#p34b243c7b8)" d="M 275.711597 145.6856 
L 275.711597 21.5 
" style="fill:none;stroke:#ffffff;stroke-linecap:square;"/>
     </g>
     <g id="line2d_58">
      <path d="M 275.711597 145.6856 
" style="fill:none;stroke:#333333;stroke-linecap:square;stroke-width:1.5;"/>
      <g>
       <use style="fill:#333333;stroke:#000000;" x="275.711597" xlink:href="#m96c9d4d552" y="145.6856"/>
      </g>
     </g>
     <g id="text_24">
      <!-- 25 -->
      <g style="fill:#4d4d4d;" transform="translate(270.112597 157.322225)scale(0.088 -0.088)">
       <use xlink:href="#DejaVuSans-32"/>
       <use x="63.623047" xlink:href="#DejaVuSans-35"/>
      </g>
     </g>
    </g>
    <g id="xtick_21">
     <g id="line2d_59">
      <path clip-path="url(#p34b243c7b8)" d="M 298.155688 145.6856 
L 298.155688 21.5 
" style="fill:none;stroke:#ffffff;stroke-linecap:square;"/>
     </g>
     <g id="line2d_60">
      <path d="M 298.155688 145.6856 
" style="fill:none;stroke:#333333;stroke-linecap:square;stroke-width:1.5;"/>
      <g>
       <use style="fill:#333333;stroke:#000000;" x="298.155688" xlink:href="#m96c9d4d552" y="145.6856"/>
      </g>
     </g>
     <g id="text_25">
      <!-- 50 -->
      <g style="fill:#4d4d4d;" transform="translate(292.556688 157.322225)scale(0.088 -0.088)">
       <use xlink:href="#DejaVuSans-35"/>
       <use x="63.623047" xlink:href="#DejaVuSans-30"/>
      </g>
     </g>
    </g>
    <g id="xtick_22">
     <g id="line2d_61">
      <path clip-path="url(#p34b243c7b8)" d="M 320.599778 145.6856 
L 320.599778 21.5 
" style="fill:none;stroke:#ffffff;stroke-linecap:square;"/>
     </g>
     <g id="line2d_62">
      <path d="M 320.599778 145.6856 
" style="fill:none;stroke:#333333;stroke-linecap:square;stroke-width:1.5;"/>
      <g>
       <use style="fill:#333333;stroke:#000000;" x="320.599778" xlink:href="#m96c9d4d552" y="145.6856"/>
      </g>
     </g>
     <g id="text_26">
      <!-- 75 -->
      <g style="fill:#4d4d4d;" transform="translate(315.000778 157.322225)scale(0.088 -0.088)">
       <use xlink:href="#DejaVuSans-37"/>
       <use x="63.623047" xlink:href="#DejaVuSans-35"/>
      </g>
     </g>
    </g>
    <g id="xtick_23">
     <g id="line2d_63">
      <path clip-path="url(#p34b243c7b8)" d="M 343.043869 145.6856 
L 343.043869 21.5 
" style="fill:none;stroke:#ffffff;stroke-linecap:square;"/>
     </g>
     <g id="line2d_64">
      <path d="M 343.043869 145.6856 
" style="fill:none;stroke:#333333;stroke-linecap:square;stroke-width:1.5;"/>
      <g>
       <use style="fill:#333333;stroke:#000000;" x="343.043869" xlink:href="#m96c9d4d552" y="145.6856"/>
      </g>
     </g>
     <g id="text_27">
      <!-- 100 -->
      <g style="fill:#4d4d4d;" transform="translate(334.645369 157.322225)scale(0.088 -0.088)">
       <use xlink:href="#DejaVuSans-31"/>
       <use x="63.623047" xlink:href="#DejaVuSans-30"/>
       <use x="127.246094" xlink:href="#DejaVuSans-30"/>
      </g>
     </g>
    </g>
    <g id="xtick_24">
     <g id="line2d_65">
      <path clip-path="url(#p34b243c7b8)" d="M 264.489551 145.6856 
L 264.489551 21.5 
" style="fill:none;stroke:#ffffff;stroke-linecap:square;stroke-width:0.5;"/>
     </g>
    </g>
    <g id="xtick_25">
     <g id="line2d_66">
      <path clip-path="url(#p34b243c7b8)" d="M 286.933642 145.6856 
L 286.933642 21.5 
" style="fill:none;stroke:#ffffff;stroke-linecap:square;stroke-width:0.5;"/>
     </g>
    </g>
    <g id="xtick_26">
     <g id="line2d_67">
      <path clip-path="url(#p34b243c7b8)" d="M 309.377733 145.6856 
L 309.377733 21.5 
" style="fill:none;stroke:#ffffff;stroke-linecap:square;stroke-width:0.5;"/>
     </g>
    </g>
    <g id="xtick_27">
     <g id="line2d_68">
      <path clip-path="url(#p34b243c7b8)" d="M 331.821824 145.6856 
L 331.821824 21.5 
" style="fill:none;stroke:#ffffff;stroke-linecap:square;stroke-width:0.5;"/>
     </g>
    </g>
    <g id="text_28">
     <!-- Dataset -->
     <g transform="translate(167.883031 171.910631)scale(0.11 -0.11)">
      <defs>
       <path d="M 2834 3397 
L 2834 2853 
Q 2591 2978 2328 3040 
Q 2066 3103 1784 3103 
Q 1356 3103 1142 2972 
Q 928 2841 928 2578 
Q 928 2378 1081 2264 
Q 1234 2150 1697 2047 
L 1894 2003 
Q 2506 1872 2764 1633 
Q 3022 1394 3022 966 
Q 3022 478 2636 193 
Q 2250 -91 1575 -91 
Q 1294 -91 989 -36 
Q 684 19 347 128 
L 347 722 
Q 666 556 975 473 
Q 1284 391 1588 391 
Q 1994 391 2212 530 
Q 2431 669 2431 922 
Q 2431 1156 2273 1281 
Q 2116 1406 1581 1522 
L 1381 1569 
Q 847 1681 609 1914 
Q 372 2147 372 2553 
Q 372 3047 722 3315 
Q 1072 3584 1716 3584 
Q 2034 3584 2315 3537 
Q 2597 3491 2834 3397 
z
" id="DejaVuSans-73" transform="scale(0.015625)"/>
      </defs>
      <use xlink:href="#DejaVuSans-44"/>
      <use x="77.001953" xlink:href="#DejaVuSans-61"/>
      <use x="138.28125" xlink:href="#DejaVuSans-74"/>
      <use x="177.490234" xlink:href="#DejaVuSans-61"/>
      <use x="238.769531" xlink:href="#DejaVuSans-73"/>
      <use x="290.869141" xlink:href="#DejaVuSans-65"/>
      <use x="352.392578" xlink:href="#DejaVuSans-74"/>
     </g>
    </g>
   </g>
   <g id="matplotlib.axis_6">
    <g id="ytick_17">
     <g id="line2d_69">
      <path clip-path="url(#p34b243c7b8)" d="M 248.778688 117.535243 
L 347.532688 117.535243 
" style="fill:none;stroke:#ffffff;stroke-linecap:square;"/>
     </g>
    </g>
    <g id="ytick_18">
     <g id="line2d_70">
      <path clip-path="url(#p34b243c7b8)" d="M 248.778688 86.597759 
L 347.532688 86.597759 
" style="fill:none;stroke:#ffffff;stroke-linecap:square;"/>
     </g>
    </g>
    <g id="ytick_19">
     <g id="line2d_71">
      <path clip-path="url(#p34b243c7b8)" d="M 248.778688 55.660274 
L 347.532688 55.660274 
" style="fill:none;stroke:#ffffff;stroke-linecap:square;"/>
     </g>
    </g>
    <g id="ytick_20">
     <g id="line2d_72">
      <path clip-path="url(#p34b243c7b8)" d="M 248.778688 24.72279 
L 347.532688 24.72279 
" style="fill:none;stroke:#ffffff;stroke-linecap:square;"/>
     </g>
    </g>
    <g id="ytick_21">
     <g id="line2d_73">
      <path clip-path="url(#p34b243c7b8)" d="M 248.778688 133.003985 
L 347.532688 133.003985 
" style="fill:none;stroke:#ffffff;stroke-linecap:square;stroke-width:0.5;"/>
     </g>
    </g>
    <g id="ytick_22">
     <g id="line2d_74">
      <path clip-path="url(#p34b243c7b8)" d="M 248.778688 102.066501 
L 347.532688 102.066501 
" style="fill:none;stroke:#ffffff;stroke-linecap:square;stroke-width:0.5;"/>
     </g>
    </g>
    <g id="ytick_23">
     <g id="line2d_75">
      <path clip-path="url(#p34b243c7b8)" d="M 248.778688 71.129016 
L 347.532688 71.129016 
" style="fill:none;stroke:#ffffff;stroke-linecap:square;stroke-width:0.5;"/>
     </g>
    </g>
    <g id="ytick_24">
     <g id="line2d_76">
      <path clip-path="url(#p34b243c7b8)" d="M 248.778688 40.191532 
L 347.532688 40.191532 
" style="fill:none;stroke:#ffffff;stroke-linecap:square;stroke-width:0.5;"/>
     </g>
    </g>
   </g>
   <g id="line2d_77">
    <path clip-path="url(#p34b243c7b8)" d="M 253.267506 49.47751 
L 262.245142 54.750548 
L 271.222778 52.994178 
L 280.200415 64.198289 
L 289.178051 62.425602 
L 298.155688 65.689842 
L 307.133324 74.948045 
L 316.11096 78.609344 
L 325.088597 83.327086 
L 334.066233 80.92388 
L 343.043869 128.547454 
" style="fill:none;stroke:#db5f57;stroke-width:0.886227;"/>
   </g>
   <g id="line2d_78">
    <path clip-path="url(#p34b243c7b8)" d="M 253.267506 30.929706 
L 262.245142 40.007612 
L 271.222778 38.861723 
L 280.200415 45.205006 
L 289.178051 50.115857 
L 298.155688 49.732648 
L 307.133324 56.892433 
L 316.11096 68.821649 
L 325.088597 72.564353 
L 334.066233 94.523815 
L 343.043869 127.26065 
" style="fill:none;stroke:#57d3db;stroke-width:0.886227;"/>
   </g>
   <g id="PolyCollection_5">
    <path clip-path="url(#p34b243c7b8)" d="M 253.267506 46.378556 
L 253.267506 54.526205 
L 262.245142 60.838424 
L 271.222778 59.39102 
L 280.200415 67.466269 
L 289.178051 67.994879 
L 298.155688 69.709368 
L 307.133324 76.373651 
L 316.11096 83.304362 
L 325.088597 90.272128 
L 334.066233 88.81196 
L 343.043869 132.614891 
L 343.043869 123.888627 
L 343.043869 123.888627 
L 334.066233 76.598729 
L 325.088597 74.7186 
L 316.11096 71.946421 
L 307.133324 73.510529 
L 298.155688 60.598098 
L 289.178051 48.8352 
L 280.200415 60.93031 
L 271.222778 41.617079 
L 262.245142 43.838995 
L 253.267506 46.378556 
z
" style="fill:#db5f57;fill-opacity:0.34902;"/>
   </g>
   <g id="PolyCollection_6">
    <path clip-path="url(#p34b243c7b8)" d="M 253.267506 27.1448 
L 253.267506 36.559025 
L 262.245142 46.114392 
L 271.222778 48.966439 
L 280.200415 51.253524 
L 289.178051 56.533501 
L 298.155688 56.213468 
L 307.133324 64.103708 
L 316.11096 78.00771 
L 325.088597 78.192284 
L 334.066233 121.939727 
L 343.043869 133.9408 
L 343.043869 123.533658 
L 343.043869 123.533658 
L 334.066233 84.208281 
L 325.088597 67.796121 
L 316.11096 60.570527 
L 307.133324 50.299446 
L 298.155688 41.669825 
L 289.178051 45.31301 
L 280.200415 38.803916 
L 271.222778 31.491543 
L 262.245142 32.690593 
L 253.267506 27.1448 
z
" style="fill:#57d3db;fill-opacity:0.34902;"/>
   </g>
   <g id="patch_14">
    <path d="M 248.778688 21.5 
L 347.532688 21.5 
L 347.532688 7.2 
L 248.778688 7.2 
z
" style="fill:#d9d9d9;"/>
   </g>
   <g id="text_29">
    <!-- SST -->
    <g style="fill:#1a1a1a;" transform="translate(289.881625 16.77825)scale(0.088 -0.088)">
     <use xlink:href="#DejaVuSans-53"/>
     <use x="63.476562" xlink:href="#DejaVuSans-53"/>
     <use x="126.953125" xlink:href="#DejaVuSans-54"/>
    </g>
   </g>
  </g>
 </g>
 <defs>
  <clipPath id="pbba24cd773">
   <rect height="124.1856" width="98.754" x="41.190688" y="21.5"/>
  </clipPath>
  <clipPath id="pfa171b69ec">
   <path d="M 111.568875 195.971538 
L 111.568875 180.131538 
L 127.408875 180.131538 
L 127.408875 195.971538 
"/>
  </clipPath>
  <clipPath id="p1b203bf7c1">
   <path d="M 210.939 195.971538 
L 210.939 180.131538 
L 226.779 180.131538 
L 226.779 195.971538 
"/>
  </clipPath>
  <clipPath id="p7b26bbfa03">
   <path d="M 111.568875 237.163413 
L 111.568875 221.323413 
L 127.408875 221.323413 
L 127.408875 237.163413 
"/>
  </clipPath>
  <clipPath id="pafe23cbd13">
   <path d="M 210.939 237.163413 
L 210.939 221.323413 
L 226.779 221.323413 
L 226.779 237.163413 
"/>
  </clipPath>
  <clipPath id="p695d334c08">
   <rect height="124.1856" width="98.754" x="144.984688" y="21.5"/>
  </clipPath>
  <clipPath id="p34b243c7b8">
   <rect height="124.1856" width="98.754" x="248.778688" y="21.5"/>
  </clipPath>
 </defs>
</svg>
