<?xml version="1.0" encoding="UTF-8"?>
<svg version="1.1" viewBox="0 0 344 179" xmlns="http://www.w3.org/2000/svg" xmlns:xlink="http://www.w3.org/1999/xlink">
<defs>
<style type="text/css">*{stroke-linecap:butt;stroke-linejoin:round;}</style>
</defs>
<g transform="translate(-7.2 -7.2)">
<path d="m41 146h99v-124h-99z" fill="#ebebeb"/>
<path d="m46 146v-124" clip-path="url(#a)" fill="none" stroke="#fff"/>
<path d="m46 146" fill="none" stroke="#333" stroke-width="1.5"/>
<defs>
<path id="d" d="m0 0v2.8" stroke="#000"/>
</defs>
<use x="45.679504" y="145.68559" width="100%" height="100%" fill="#333333" stroke="#000000" xlink:href="#d"/>
<g transform="matrix(.088 0 0 -.088 43 157)" fill="#4d4d4d">
<defs>
<path id="e" transform="scale(.016)" d="m2e3 4250q-487 0-733-480-245-479-245-1442 0-959 245-1439 246-480 733-480 491 0 736 480 246 480 246 1439 0 963-246 1442-245 480-736 480zm0 500q785 0 1199-621 414-620 414-1801 0-1178-414-1799-414-620-1199-620-784 0-1198 620-414 621-414 1799 0 1181 414 1801 414 621 1198 621z"/>
</defs>
<use width="100%" height="100%" xlink:href="#e"/>
</g>
<path d="m68 146v-124" clip-path="url(#a)" fill="none" stroke="#fff"/>
<path d="m68 146" fill="none" stroke="#333" stroke-width="1.5"/>
<use x="68.123596" y="145.68559" width="100%" height="100%" fill="#333333" stroke="#000000" xlink:href="#d"/>
<g transform="matrix(.088 0 0 -.088 63 157)" fill="#4d4d4d">
<defs>
<path id="q" transform="scale(.016)" d="m1228 531h2203v-531h-3e3v531q359 372 979 998 621 627 780 809 303 340 423 576 121 236 121 464 0 372-261 606-261 235-680 235-297 0-627-103-329-103-704-313v638q381 153 712 231 332 78 607 78 725 0 1156-363 431-362 431-968 0-288-108-546-107-257-392-607-78-91-497-524-418-433-1181-1211z"/>
<path id="f" transform="scale(.016)" d="m691 4666h2478v-532h-1900v-1143q137 47 274 70 138 23 276 23 781 0 1237-428 457-428 457-1159 0-753-469-1171-469-417-1322-417-294 0-599 50-304 50-629 150v635q281-153 581-228t634-75q541 0 856 284 316 284 316 772 0 487-316 771-315 285-856 285-253 0-505-56-251-56-513-175z"/>
</defs>
<use width="100%" height="100%" xlink:href="#q"/>
<use x="63.623047" width="100%" height="100%" xlink:href="#f"/>
</g>
<path d="m91 146v-124" clip-path="url(#a)" fill="none" stroke="#fff"/>
<path d="m91 146" fill="none" stroke="#333" stroke-width="1.5"/>
<use x="90.567688" y="145.68559" width="100%" height="100%" fill="#333333" stroke="#000000" xlink:href="#d"/>
<g transform="matrix(.088 0 0 -.088 85 157)" fill="#4d4d4d">
<use width="100%" height="100%" xlink:href="#f"/>
<use x="63.623047" width="100%" height="100%" xlink:href="#e"/>
</g>
<path d="m113 146v-124" clip-path="url(#a)" fill="none" stroke="#fff"/>
<path d="m113 146" fill="none" stroke="#333" stroke-width="1.5"/>
<use x="113.01178" y="145.68559" width="100%" height="100%" fill="#333333" stroke="#000000" xlink:href="#d"/>
<g transform="matrix(.088 0 0 -.088 107 157)" fill="#4d4d4d">
<defs>
<path id="p" transform="scale(.016)" d="m525 4666h3e3v-269l-1694-4397h-659l1594 4134h-2241z"/>
</defs>
<use width="100%" height="100%" xlink:href="#p"/>
<use x="63.623047" width="100%" height="100%" xlink:href="#f"/>
</g>
<path d="m135 146v-124" clip-path="url(#a)" fill="none" stroke="#fff"/>
<path d="m135 146" fill="none" stroke="#333" stroke-width="1.5"/>
<use x="135.45587" y="145.68559" width="100%" height="100%" fill="#333333" stroke="#000000" xlink:href="#d"/>
<g transform="matrix(.088 0 0 -.088 127 157)" fill="#4d4d4d">
<defs>
<path id="i" transform="scale(.016)" d="m794 531h1e3v3560l-1122-225v575l1116 225h631v-4135h1e3v-531h-2687z"/>
</defs>
<use width="100%" height="100%" xlink:href="#i"/>
<use x="63.623047" width="100%" height="100%" xlink:href="#e"/>
<use x="127.24609" width="100%" height="100%" xlink:href="#e"/>
</g>
<path d="m57 146v-124" clip-path="url(#a)" fill="none" stroke="#fff" stroke-width=".5"/>
<path d="m79 146v-124" clip-path="url(#a)" fill="none" stroke="#fff" stroke-width=".5"/>
<path d="m102 146v-124" clip-path="url(#a)" fill="none" stroke="#fff" stroke-width=".5"/>
<path d="m124 146v-124" clip-path="url(#a)" fill="none" stroke="#fff" stroke-width=".5"/>
<path d="m41 118h99" clip-path="url(#a)" fill="none" stroke="#fff"/>
<path d="m41 118" fill="none" stroke="#333" stroke-width="1.5"/>
<defs>
<path id="g" d="m0 0h-2.8" stroke="#000"/>
</defs>
<use x="41.190689" y="117.53524" width="100%" height="100%" fill="#333333" stroke="#000000" xlink:href="#g"/>
<g transform="matrix(.088 0 0 -.088 22 120)" fill="#4d4d4d">
<defs>
<path id="r" transform="scale(.016)" d="m684 794h660v-794h-660z"/>
<path id="al" transform="scale(.016)" d="m2419 4116-1594-2491h1594zm-166 550h794v-3e3h666v-525h-666v-1100h-628v1100h-2106v609z"/>
</defs>
<use width="100%" height="100%" xlink:href="#e"/>
<use x="63.623047" width="100%" height="100%" xlink:href="#r"/>
<use x="95.410156" width="100%" height="100%" xlink:href="#al"/>
</g>
<path d="m41 87h99" clip-path="url(#a)" fill="none" stroke="#fff"/>
<path d="m41 87" fill="none" stroke="#333" stroke-width="1.5"/>
<use x="41.190689" y="86.597755" width="100%" height="100%" fill="#333333" stroke="#000000" xlink:href="#g"/>
<g transform="matrix(.088 0 0 -.088 22 89)" fill="#4d4d4d">
<defs>
<path id="ak" transform="scale(.016)" d="m2113 2584q-425 0-674-291-248-290-248-796 0-503 248-796 249-292 674-292t673 292q248 293 248 796 0 506-248 796-248 291-673 291zm1253 2e3v-575q-238 112-480 171-242 60-480 60-625 0-955-422-329-422-376-1275 184 272 462 417 279 145 613 145 703 0 1111-427 408-426 408-1160 0-719-425-1154-425-434-1131-434-810 0-1238 620-428 621-428 1799 0 1106 525 1764t1409 658q238 0 480-47t505-140z"/>
</defs>
<use width="100%" height="100%" xlink:href="#e"/>
<use x="63.623047" width="100%" height="100%" xlink:href="#r"/>
<use x="95.410156" width="100%" height="100%" xlink:href="#ak"/>
</g>
<path d="m41 56h99" clip-path="url(#a)" fill="none" stroke="#fff"/>
<path d="m41 56" fill="none" stroke="#333" stroke-width="1.5"/>
<use x="41.190689" y="55.660275" width="100%" height="100%" fill="#333333" stroke="#000000" xlink:href="#g"/>
<g transform="matrix(.088 0 0 -.088 22 58)" fill="#4d4d4d">
<defs>
<path id="aj" transform="scale(.016)" d="m2e3 2216q-450 0-708-241-257-241-257-662 0-422 257-663 258-241 708-241t709 242q260 243 260 662 0 421-258 662-257 241-711 241zm-631 268q-406 100-633 378-226 279-226 679 0 559 398 884 399 325 1092 325 697 0 1094-325t397-884q0-400-227-679-226-278-629-378 456-106 710-416 255-309 255-755 0-679-414-1e3-414-362-1186-362-771 0-1186 362-414 363-414 1e3 0 446 256 755 257 310 713 416zm-231 997q0-362 226-565 227-203 636-203 407 0 636 203 230 203 230 565 0 363-230 566-229 203-636 203-409 0-636-203-226-203-226-566z"/>
</defs>
<use width="100%" height="100%" xlink:href="#e"/>
<use x="63.623047" width="100%" height="100%" xlink:href="#r"/>
<use x="95.410156" width="100%" height="100%" xlink:href="#aj"/>
</g>
<path d="m41 25h99" clip-path="url(#a)" fill="none" stroke="#fff"/>
<path d="m41 25" fill="none" stroke="#333" stroke-width="1.5"/>
<use x="41.190689" y="24.72279" width="100%" height="100%" fill="#333333" stroke="#000000" xlink:href="#g"/>
<g transform="matrix(.088 0 0 -.088 31 27)" fill="#4d4d4d">
<use width="100%" height="100%" xlink:href="#i"/>
</g>
<path d="m41 133h99" clip-path="url(#a)" fill="none" stroke="#fff" stroke-width=".5"/>
<path d="m41 102h99" clip-path="url(#a)" fill="none" stroke="#fff" stroke-width=".5"/>
<path d="m41 71h99" clip-path="url(#a)" fill="none" stroke="#fff" stroke-width=".5"/>
<path d="m41 40h99" clip-path="url(#a)" fill="none" stroke="#fff" stroke-width=".5"/>
<g transform="matrix(0 -.11 -.11 0 16 118)">
<defs>
<path id="ae" transform="scale(.016)" d="m1259 4147v-1753h794q441 0 681 228 241 228 241 650 0 419-241 647-240 228-681 228zm-631 519h1425q785 0 1186-355 402-355 402-1e3 0-691-402-1e3-401-353-1186-353h-794v-1875h-631z"/>
<path id="m" transform="scale(.016)" d="m3597 1894v-281h-2644q38-594 358-905t892-311q331 0 642 81t618 244v-544q-310-131-635-200t-659-69q-838 0-1327 487-489 488-489 1320 0 859 464 1363 464 505 1252 505 706 0 1117-455 411-454 411-1235zm-575 169q-6 471-264 752-258 282-683 282-481 0-770-272t-333-766z"/>
<path id="u" transform="scale(.016)" d="m2631 3e3q-97 56-211 82-114 27-251 27-488 0-749-317t-261-911v-1844h-578v3500h578v-544q182 319 472 473 291 155 707 155 59 0 131-8 72-7 159-23z"/>
<path id="ac" transform="scale(.016)" d="m2375 4863v-479h-550q-309 0-430-125-120-125-120-450v-309h947v-447h-947v-3053h-578v3053h-550v447h550v244q0 584 272 851 272 268 862 268z"/>
<path id="k" transform="scale(.016)" d="m2e3 3097q-462 0-731-361t-269-989 267-989q268-361 733-361 460 0 728 362 269 363 269 988 0 622-269 986-268 364-728 364zm0 487q750 0 1178-488 429-487 429-1349 0-859-429-1349-428-489-1178-489-753 0-1180 489-426 490-426 1349 0 862 426 1349 427 488 1180 488z"/>
<path id="ab" transform="scale(.016)" d="m3328 2828q216 388 516 572t706 184q547 0 844-383 297-382 297-1088v-2113h-578v2094q0 503-179 746-178 244-543 244-447 0-707-297-259-296-259-809v-2e3h-578v2094q0 506-178 748t-550 242q-441 0-701-298-259-298-259-808v-2e3h-578v3500h578v-544q197 322 472 475t653 153q382 0 649-194 267-193 395-562z"/>
<path id="w" transform="scale(.016)" d="m2194 1759q-697 0-966-159t-269-544q0-306 202-486 202-179 548-179 479 0 768 339t289 901v128zm1147 238v-2e3h-575v531q-197-318-491-470t-719-152q-537 0-855 302-317 302-317 808 0 590 395 890 396 300 1180 300h807v57q0 397-261 614t-733 217q-300 0-585-72-284-72-546-216v532q315 122 612 182 297 61 578 61 760 0 1135-394 375-393 375-1193z"/>
<path id="l" transform="scale(.016)" d="m3513 2113v-2113h-575v2094q0 497-194 743-194 247-581 247-466 0-735-297-269-296-269-809v-2e3h-578v3500h578v-544q207 316 486 472 280 156 646 156 603 0 912-373 310-373 310-1098z"/>
<path id="ad" transform="scale(.016)" d="m3122 3366v-538q-244 135-489 202t-495 67q-560 0-870-355-309-354-309-995t309-996q310-354 870-354 250 0 495 67t489 202v-532q-241-112-499-168-257-57-548-57-791 0-1257 497-465 497-465 1341 0 856 470 1346 471 491 1290 491 265 0 518-55 253-54 491-163z"/>
</defs>
<use width="100%" height="100%" xlink:href="#ae"/>
<use x="56.677734" width="100%" height="100%" xlink:href="#m"/>
<use x="118.20117" width="100%" height="100%" xlink:href="#u"/>
<use x="159.31445" width="100%" height="100%" xlink:href="#ac"/>
<use x="194.51953" width="100%" height="100%" xlink:href="#k"/>
<use x="255.70117" width="100%" height="100%" xlink:href="#u"/>
<use x="295.06445" width="100%" height="100%" xlink:href="#ab"/>
<use x="392.47656" width="100%" height="100%" xlink:href="#w"/>
<use x="453.75586" width="100%" height="100%" xlink:href="#l"/>
<use x="517.13477" width="100%" height="100%" xlink:href="#ad"/>
<use x="572.11523" width="100%" height="100%" xlink:href="#m"/>
</g>
<path d="m46 40 9 3.2 9-4.5 9 2 9 14 9-6.6 9-.15 9 12 9 7.4 9 4.6 9 56" clip-path="url(#a)" fill="none" stroke="#db5f57" stroke-width=".89"/>
<path d="m46 38 9-2 9 1.6 9-3.3 9 2.7 9 2 9-.12 9 5.9 9 14 9 18 9 52" clip-path="url(#a)" fill="none" stroke="#57d3db" stroke-width=".89"/>
<path d="m46 31v19l9 3.7 9-10 9 3.1 9 12 9-4.8 9-1.8 9 12 9 9.5 9 4.5 9 59v-15l-9-53-9-7.7-9-7.9-9-8.7-9 2-9 5.4-9-18-9 .58-9 .25z" clip-path="url(#a)" fill="#db5f57" fill-opacity=".35"/>
<path d="m46 31v15l9-5 9 3.9 9-5.7 9 7.9 9-2.1 9-3.2 9 9.6 9 15 9 14 9 60v-16l-9-49-9-23-9-13-9-5.6-9 2.6-9-4.9-9-1.4-9 3.5-9 .16z" clip-path="url(#a)" fill="#57d3db" fill-opacity=".35"/>
<path d="m41 22h99v-14h-99z" fill="#d9d9d9"/>
<g transform="matrix(.088 0 0 -.088 79 17)" fill="#1a1a1a">
<defs>
<path id="aa" transform="scale(.016)" d="m628 4666h631v-4666h-631z"/>
<path id="y" transform="scale(.016)" d="m628 4666h941l1190-3175 1197 3175h941v-4666h-616v4097l-1203-3200h-634l-1203 3200v-4097h-613z"/>
<path id="ah" transform="scale(.016)" d="m1259 4147v-3628h763q966 0 1414 437 448 438 448 1382 0 937-448 1373t-1414 436zm-631 519h1297q1356 0 2e3-564 635-564 635-1764 0-1207-638-1773-637-565-2e3-565h-1297z"/>
<path id="o" transform="scale(.016)" d="m1259 2228v-1709h1e3q509 0 754 211 246 211 246 645 0 438-246 645-245 208-754 208zm0 1919v-1406h935q462 0 688 173 227 174 227 530 0 353-227 528-226 175-688 175zm-631 519h1613q722 0 1112-300 391-300 391-853 0-429-200-682t-588-315q466-100 724-418 258-317 258-792 0-625-425-966-425-340-1210-340h-1675z"/>
</defs>
<use width="100%" height="100%" xlink:href="#aa"/>
<use x="29.492188" width="100%" height="100%" xlink:href="#y"/>
<use x="115.77148" width="100%" height="100%" xlink:href="#ah"/>
<use x="192.77344" width="100%" height="100%" xlink:href="#o"/>
</g>
<g transform="translate(0,-10)">
<path d="m112 196h16v-16h-16z" clip-path="url(#s)" fill="#f2f2f2"/>
</g>
<g transform="translate(0,-10)">
<path d="m112 188h16" clip-path="url(#s)" fill="none" stroke="#db5f57" stroke-width=".89"/>
</g>
<g transform="translate(0,-10)">
<g transform="matrix(.088 0 0 -.088 130 190)">
<defs>
<path id="v" transform="scale(.016)" d="m603 3500h575v-3500h-575zm0 1363h575v-729h-575z"/>
<path id="z" transform="scale(.016)" d="m628 4666h631v-4135h2272v-531h-2903z"/>
<path id="h" transform="scale(.016)" d="m3425 4513v-616q-359 172-678 256-319 85-616 85-515 0-795-200t-280-569q0-310 186-468 186-157 705-254l381-78q706-135 1e3-474t336-907q0-679-455-1e3-454-350-1332-350-331 0-705 75-373 75-773 222v650q384-215 753-325 369-109 725-109 540 0 834 212 294 213 294 607 0 343-211 537t-692 291l-385 75q-706 140-1e3 440-315 300-315 835 0 619 436 975t1201 356q329 0 669-60 341-59 697-177z"/>
<path id="n" transform="scale(.016)" d="m-19 4666h3947v-532h-1656v-4134h-634v4134h-1657z"/>
<path id="am" transform="scale(.016)" d="m313 2e3h1684v-512h-1684z"/>
<path id="ai" transform="scale(.016)" d="m2188 4e3-857-2322h1716zm-357 622h716l1778-4666h-656l-425 1197h-2103l-425-1197h-666z"/>
<path id="j" transform="scale(.016)" d="m1172 4494v-994h1184v-447h-1184v-1900q0-428 117-550t477-122h590v-481h-590q-666 0-919 248-253 249-253 905v1900h-422v447h422v994z"/>
</defs>
<use width="100%" height="100%" xlink:href="#o"/>
<use x="68.603516" width="100%" height="100%" xlink:href="#v"/>
<use x="96.386719" width="100%" height="100%" xlink:href="#z"/>
<use x="152.09961" width="100%" height="100%" xlink:href="#h"/>
<use x="215.57617" width="100%" height="100%" xlink:href="#n"/>
<use x="276.66016" width="100%" height="100%" xlink:href="#y"/>
<use x="362.93945" width="100%" height="100%" xlink:href="#am"/>
<use x="396.77344" width="100%" height="100%" xlink:href="#ai"/>
<use x="463.43164" width="100%" height="100%" xlink:href="#j"/>
<use x="502.64062" width="100%" height="100%" xlink:href="#j"/>
<use x="541.84961" width="100%" height="100%" xlink:href="#m"/>
<use x="603.37305" width="100%" height="100%" xlink:href="#l"/>
<use x="666.75195" width="100%" height="100%" xlink:href="#j"/>
<use x="705.96094" width="100%" height="100%" xlink:href="#v"/>
<use x="733.74414" width="100%" height="100%" xlink:href="#k"/>
<use x="794.92578" width="100%" height="100%" xlink:href="#l"/>
</g>
</g>
<g transform="translate(0,-10)">
<path d="m211 196h16v-16h-16z" clip-path="url(#t)" fill="#f2f2f2"/>
</g>
<g transform="translate(0,-10)">
<path d="m211 188h16" clip-path="url(#t)" fill="none" stroke="#57d3db" stroke-width=".89"/>
</g>
<g transform="translate(0,-10)">
<g transform="matrix(.088 0 0 -.088 230 190)">
<defs>
<path id="x" transform="scale(.016)" d="m2841 2188q203-69 395-294t386-619l641-1275h-679l-596 1197q-232 469-449 622t-592 153h-688v-2e3h-631v4666h1425q800 0 1194-335 394-334 394-1e3 0-441-205-732-205-290-595-402zm-1582 2e3v-1656h794q456 0 689 211t233 620-233 617-689 208z"/>
<path id="ag" transform="scale(.016)" d="m628 4666h3e3v-532h-2319v-1381h2222v-531h-2222v-1691h2375v-531h-3e3z"/>
</defs>
<use width="100%" height="100%" xlink:href="#x"/>
<use x="64.982422" width="100%" height="100%" xlink:href="#k"/>
<use x="126.16406" width="100%" height="100%" xlink:href="#o"/>
<use x="194.76758" width="100%" height="100%" xlink:href="#ag"/>
<use x="257.95117" width="100%" height="100%" xlink:href="#x"/>
<use x="320.18359" width="100%" height="100%" xlink:href="#n"/>
<use x="364.76758" width="100%" height="100%" xlink:href="#w"/>
</g>
</g>
<path d="m145 146h99v-124h-99z" fill="#ebebeb"/>
<path d="m149 146v-124" clip-path="url(#b)" fill="none" stroke="#fff" stroke-linecap="square"/>
<path d="m149 146" fill="none" stroke="#333" stroke-linecap="square" stroke-width="1.5"/>
<use x="149.47351" y="145.68559" width="100%" height="100%" fill="#333333" stroke="#000000" xlink:href="#d"/>
<g transform="matrix(.088 0 0 -.088 147 157)" fill="#4d4d4d">
<use width="100%" height="100%" xlink:href="#e"/>
</g>
<path d="m172 146v-124" clip-path="url(#b)" fill="none" stroke="#fff" stroke-linecap="square"/>
<path d="m172 146" fill="none" stroke="#333" stroke-linecap="square" stroke-width="1.5"/>
<use x="171.9176" y="145.68559" width="100%" height="100%" fill="#333333" stroke="#000000" xlink:href="#d"/>
<g transform="matrix(.088 0 0 -.088 166 157)" fill="#4d4d4d">
<use width="100%" height="100%" xlink:href="#q"/>
<use x="63.623047" width="100%" height="100%" xlink:href="#f"/>
</g>
<path d="m194 146v-124" clip-path="url(#b)" fill="none" stroke="#fff" stroke-linecap="square"/>
<path d="m194 146" fill="none" stroke="#333" stroke-linecap="square" stroke-width="1.5"/>
<use x="194.36169" y="145.68559" width="100%" height="100%" fill="#333333" stroke="#000000" xlink:href="#d"/>
<g transform="matrix(.088 0 0 -.088 189 157)" fill="#4d4d4d">
<use width="100%" height="100%" xlink:href="#f"/>
<use x="63.623047" width="100%" height="100%" xlink:href="#e"/>
</g>
<path d="m217 146v-124" clip-path="url(#b)" fill="none" stroke="#fff" stroke-linecap="square"/>
<path d="m217 146" fill="none" stroke="#333" stroke-linecap="square" stroke-width="1.5"/>
<use x="216.80577" y="145.68559" width="100%" height="100%" fill="#333333" stroke="#000000" xlink:href="#d"/>
<g transform="matrix(.088 0 0 -.088 211 157)" fill="#4d4d4d">
<use width="100%" height="100%" xlink:href="#p"/>
<use x="63.623047" width="100%" height="100%" xlink:href="#f"/>
</g>
<path d="m239 146v-124" clip-path="url(#b)" fill="none" stroke="#fff" stroke-linecap="square"/>
<path d="m239 146" fill="none" stroke="#333" stroke-linecap="square" stroke-width="1.5"/>
<use x="239.24986" y="145.68559" width="100%" height="100%" fill="#333333" stroke="#000000" xlink:href="#d"/>
<g transform="matrix(.088 0 0 -.088 231 157)" fill="#4d4d4d">
<use width="100%" height="100%" xlink:href="#i"/>
<use x="63.623047" width="100%" height="100%" xlink:href="#e"/>
<use x="127.24609" width="100%" height="100%" xlink:href="#e"/>
</g>
<path d="m161 146v-124" clip-path="url(#b)" fill="none" stroke="#fff" stroke-linecap="square" stroke-width=".5"/>
<path d="m183 146v-124" clip-path="url(#b)" fill="none" stroke="#fff" stroke-linecap="square" stroke-width=".5"/>
<path d="m206 146v-124" clip-path="url(#b)" fill="none" stroke="#fff" stroke-linecap="square" stroke-width=".5"/>
<path d="m228 146v-124" clip-path="url(#b)" fill="none" stroke="#fff" stroke-linecap="square" stroke-width=".5"/>
<path d="m145 118h99" clip-path="url(#b)" fill="none" stroke="#fff" stroke-linecap="square"/>
<path d="m145 87h99" clip-path="url(#b)" fill="none" stroke="#fff" stroke-linecap="square"/>
<path d="m145 56h99" clip-path="url(#b)" fill="none" stroke="#fff" stroke-linecap="square"/>
<path d="m145 25h99" clip-path="url(#b)" fill="none" stroke="#fff" stroke-linecap="square"/>
<path d="m145 133h99" clip-path="url(#b)" fill="none" stroke="#fff" stroke-linecap="square" stroke-width=".5"/>
<path d="m145 102h99" clip-path="url(#b)" fill="none" stroke="#fff" stroke-linecap="square" stroke-width=".5"/>
<path d="m145 71h99" clip-path="url(#b)" fill="none" stroke="#fff" stroke-linecap="square" stroke-width=".5"/>
<path d="m145 40h99" clip-path="url(#b)" fill="none" stroke="#fff" stroke-linecap="square" stroke-width=".5"/>
<path d="m149 58 9-.03 9 1.8 9 2.5 9 5 9-.33 9 4.9 9 6.2 9-.12 9-1.8 9-8.2" clip-path="url(#b)" fill="none" stroke="#db5f57" stroke-width=".89"/>
<path d="m149 36 9-.16 9 8.2 9-2.7 9 8.4 9-1.4 9 5.5 9 1.5 9 6 9 2.7 9 8.3" clip-path="url(#b)" fill="none" stroke="#57d3db" stroke-width=".89"/>
<path d="m149 54v6.8l9 2.6 9 .69 9 6.8 9-1.3 9 3 9 5.3 9 2.9 9 6.6 9 .24 9-16v-6.1l-9 1.6-9 3.4-9 5.5-9-7-9-6.3-9 3.5-9-6.9-9-5.7-9 1.3z" clip-path="url(#b)" fill="#db5f57" fill-opacity=".35"/>
<path d="m149 32v6.3l9 4.5 9 4.9 9-1.1 9 9.7 9-3.8 9 5 9 1.8 9 10 9 3.7 9 1.8v-6.2l-9-9.5-9-3.5-9-6.2-9-.26-9-3.9-9 1.1-9-7.5-9 2.7-9-12z" clip-path="url(#b)" fill="#57d3db" fill-opacity=".35"/>
<path d="m145 22h99v-14h-99z" fill="#d9d9d9"/>
<g transform="matrix(.088 0 0 -.088 185 17)" fill="#1a1a1a">
<defs>
<path id="af" transform="scale(.016)" d="m628 4666h850l2069-3903v3903h612v-4666h-850l-2068 3903v-3903h-613z"/>
</defs>
<use width="100%" height="100%" xlink:href="#h"/>
<use x="63.476562" width="100%" height="100%" xlink:href="#af"/>
<use x="138.28125" width="100%" height="100%" xlink:href="#z"/>
<use x="193.99414" width="100%" height="100%" xlink:href="#aa"/>
</g>
<path d="m249 146h99v-124h-99z" fill="#ebebeb"/>
<path d="m253 146v-124" clip-path="url(#c)" fill="none" stroke="#fff" stroke-linecap="square"/>
<path d="m253 146" fill="none" stroke="#333" stroke-linecap="square" stroke-width="1.5"/>
<use x="253.2675" y="145.68559" width="100%" height="100%" fill="#333333" stroke="#000000" xlink:href="#d"/>
<g transform="matrix(.088 0 0 -.088 250 157)" fill="#4d4d4d">
<use width="100%" height="100%" xlink:href="#e"/>
</g>
<path d="m276 146v-124" clip-path="url(#c)" fill="none" stroke="#fff" stroke-linecap="square"/>
<path d="m276 146" fill="none" stroke="#333" stroke-linecap="square" stroke-width="1.5"/>
<use x="275.71161" y="145.68559" width="100%" height="100%" fill="#333333" stroke="#000000" xlink:href="#d"/>
<g transform="matrix(.088 0 0 -.088 270 157)" fill="#4d4d4d">
<use width="100%" height="100%" xlink:href="#q"/>
<use x="63.623047" width="100%" height="100%" xlink:href="#f"/>
</g>
<path d="m298 146v-124" clip-path="url(#c)" fill="none" stroke="#fff" stroke-linecap="square"/>
<path d="m298 146" fill="none" stroke="#333" stroke-linecap="square" stroke-width="1.5"/>
<use x="298.1557" y="145.68559" width="100%" height="100%" fill="#333333" stroke="#000000" xlink:href="#d"/>
<g transform="matrix(.088 0 0 -.088 293 157)" fill="#4d4d4d">
<use width="100%" height="100%" xlink:href="#f"/>
<use x="63.623047" width="100%" height="100%" xlink:href="#e"/>
</g>
<path d="m321 146v-124" clip-path="url(#c)" fill="none" stroke="#fff" stroke-linecap="square"/>
<path d="m321 146" fill="none" stroke="#333" stroke-linecap="square" stroke-width="1.5"/>
<use x="320.59979" y="145.68559" width="100%" height="100%" fill="#333333" stroke="#000000" xlink:href="#d"/>
<g transform="matrix(.088 0 0 -.088 315 157)" fill="#4d4d4d">
<use width="100%" height="100%" xlink:href="#p"/>
<use x="63.623047" width="100%" height="100%" xlink:href="#f"/>
</g>
<path d="m343 146v-124" clip-path="url(#c)" fill="none" stroke="#fff" stroke-linecap="square"/>
<path d="m343 146" fill="none" stroke="#333" stroke-linecap="square" stroke-width="1.5"/>
<use x="343.04385" y="145.68559" width="100%" height="100%" fill="#333333" stroke="#000000" xlink:href="#d"/>
<g transform="matrix(.088 0 0 -.088 335 157)" fill="#4d4d4d">
<use width="100%" height="100%" xlink:href="#i"/>
<use x="63.623047" width="100%" height="100%" xlink:href="#e"/>
<use x="127.24609" width="100%" height="100%" xlink:href="#e"/>
</g>
<path d="m264 146v-124" clip-path="url(#c)" fill="none" stroke="#fff" stroke-linecap="square" stroke-width=".5"/>
<path d="m287 146v-124" clip-path="url(#c)" fill="none" stroke="#fff" stroke-linecap="square" stroke-width=".5"/>
<path d="m309 146v-124" clip-path="url(#c)" fill="none" stroke="#fff" stroke-linecap="square" stroke-width=".5"/>
<path d="m332 146v-124" clip-path="url(#c)" fill="none" stroke="#fff" stroke-linecap="square" stroke-width=".5"/>
<path d="m249 118h99" clip-path="url(#c)" fill="none" stroke="#fff" stroke-linecap="square"/>
<path d="m249 87h99" clip-path="url(#c)" fill="none" stroke="#fff" stroke-linecap="square"/>
<path d="m249 56h99" clip-path="url(#c)" fill="none" stroke="#fff" stroke-linecap="square"/>
<path d="m249 25h99" clip-path="url(#c)" fill="none" stroke="#fff" stroke-linecap="square"/>
<path d="m249 133h99" clip-path="url(#c)" fill="none" stroke="#fff" stroke-linecap="square" stroke-width=".5"/>
<path d="m249 102h99" clip-path="url(#c)" fill="none" stroke="#fff" stroke-linecap="square" stroke-width=".5"/>
<path d="m249 71h99" clip-path="url(#c)" fill="none" stroke="#fff" stroke-linecap="square" stroke-width=".5"/>
<path d="m249 40h99" clip-path="url(#c)" fill="none" stroke="#fff" stroke-linecap="square" stroke-width=".5"/>
<path d="m253 49 9 5.3 9-1.8 9 11 9-1.8 9 3.3 9 9.3 9 3.7 9 4.7 9-2.4 9 48" clip-path="url(#c)" fill="none" stroke="#db5f57" stroke-width=".89"/>
<path d="m253 31 9 9.1 9-1.1 9 6.3 9 4.9 9-.38 9 7.2 9 12 9 3.7 9 22 9 33" clip-path="url(#c)" fill="none" stroke="#57d3db" stroke-width=".89"/>
<path d="m253 46v8.1l9 6.3 9-1.4 9 8.1 9 .53 9 1.7 9 6.7 18 14 9-1.5 9 44v-8.7l-9-47-9-1.9-9-2.8-9 1.6-9-13-9-12-9 12-9-19-9 2.2z" clip-path="url(#c)" fill="#db5f57" fill-opacity=".35"/>
<path d="m253 27v9.4l9 9.6 9 2.9 9 2.3 9 5.3 9-.32 9 7.9 9 14 9 .18 9 44 9 12v-10l-9-39-9-16-9-7.2-9-10-9-8.6-9 3.6-9-6.5-9-7.3-9 1.2z" clip-path="url(#c)" fill="#57d3db" fill-opacity=".35"/>
<path d="m249 22h99v-14h-99z" fill="#d9d9d9"/>
<g transform="matrix(.088 0 0 -.088 290 17)" fill="#1a1a1a">
<use width="100%" height="100%" xlink:href="#h"/>
<use x="63.476562" width="100%" height="100%" xlink:href="#h"/>
<use x="126.95312" width="100%" height="100%" xlink:href="#n"/>
</g>
</g>
<defs>
<clipPath id="a">
<rect x="41" y="22" width="99" height="124"/>
</clipPath>
<clipPath id="s">
<path d="m112 196v-16h16v16"/>
</clipPath>
<clipPath id="t">
<path d="m211 196v-16h16v16"/>
</clipPath>
<clipPath id="b">
<rect x="145" y="22" width="99" height="124"/>
</clipPath>
<clipPath id="c">
<rect x="249" y="22" width="99" height="124"/>
</clipPath>
</defs>
</svg>
