<?xml version="1.0" encoding="UTF-8"?>
<svg version="1.1" viewBox="0 0 346 164" xmlns="http://www.w3.org/2000/svg" xmlns:xlink="http://www.w3.org/1999/xlink">
<defs>
<style type="text/css">*{stroke-linecap:butt;stroke-linejoin:round;}</style>
</defs>
<g transform="translate(-7.2 -7.2)">
<path d="m47 131h306v-124h-306z" fill="#ebebeb"/>
<path d="m104 131v-124" clip-path="url(#a)" fill="none" stroke="#fff"/>
<path d="m104 131" fill="none" stroke="#333" stroke-width="1.5"/>
<defs>
<path id="h" d="m0 0v2.8" stroke="#000"/>
</defs>
<use x="104.22881" y="131.3856" width="100%" height="100%" fill="#333333" stroke="#000000" xlink:href="#h"/>
<g transform="matrix(.088 0 0 -.088 93 143)" fill="#4d4d4d">
<defs>
<path id="r" transform="scale(.016)" d="m628 4666h631v-4666h-631z"/>
<path id="p" transform="scale(.016)" d="m628 4666h941l1190-3175 1197 3175h941v-4666h-616v4097l-1203-3200h-634l-1203 3200v-4097h-613z"/>
<path id="ad" transform="scale(.016)" d="m1259 4147v-3628h763q966 0 1414 437 448 438 448 1382 0 937-448 1373t-1414 436zm-631 519h1297q1356 0 2e3-564 635-564 635-1764 0-1207-638-1773-637-565-2e3-565h-1297z"/>
<path id="l" transform="scale(.016)" d="m1259 2228v-1709h1e3q509 0 754 211 246 211 246 645 0 438-246 645-245 208-754 208zm0 1919v-1406h935q462 0 688 173 227 174 227 530 0 353-227 528-226 175-688 175zm-631 519h1613q722 0 1112-300 391-300 391-853 0-429-200-682t-588-315q466-100 724-418 258-317 258-792 0-625-425-966-425-340-1210-340h-1675z"/>
</defs>
<use width="100%" height="100%" xlink:href="#r"/>
<use x="29.492188" width="100%" height="100%" xlink:href="#p"/>
<use x="115.77148" width="100%" height="100%" xlink:href="#ad"/>
<use x="192.77344" width="100%" height="100%" xlink:href="#l"/>
</g>
<path d="m200 131v-124" clip-path="url(#a)" fill="none" stroke="#fff"/>
<path d="m200 131" fill="none" stroke="#333" stroke-width="1.5"/>
<use x="199.96069" y="131.3856" width="100%" height="100%" fill="#333333" stroke="#000000" xlink:href="#h"/>
<g transform="matrix(.088 0 0 -.088 190 143)" fill="#4d4d4d">
<defs>
<path id="f" transform="scale(.016)" d="m3425 4513v-616q-359 172-678 256-319 85-616 85-515 0-795-200t-280-569q0-310 186-468 186-157 705-254l381-78q706-135 1e3-474t336-907q0-679-455-1e3-454-350-1332-350-331 0-705 75-373 75-773 222v650q384-215 753-325 369-109 725-109 540 0 834 212 294 213 294 607 0 343-211 537t-692 291l-385 75q-706 140-1e3 440-315 300-315 835 0 619 436 975t1201 356q329 0 669-60 341-59 697-177z"/>
<path id="ab" transform="scale(.016)" d="m628 4666h850l2069-3903v3903h612v-4666h-850l-2068 3903v-3903h-613z"/>
<path id="q" transform="scale(.016)" d="m628 4666h631v-4135h2272v-531h-2903z"/>
</defs>
<use width="100%" height="100%" xlink:href="#f"/>
<use x="63.476562" width="100%" height="100%" xlink:href="#ab"/>
<use x="138.28125" width="100%" height="100%" xlink:href="#q"/>
<use x="193.99414" width="100%" height="100%" xlink:href="#r"/>
</g>
<path d="m296 131v-124" clip-path="url(#a)" fill="none" stroke="#fff"/>
<path d="m296 131" fill="none" stroke="#333" stroke-width="1.5"/>
<use x="295.69257" y="131.3856" width="100%" height="100%" fill="#333333" stroke="#000000" xlink:href="#h"/>
<g transform="matrix(.088 0 0 -.088 287 143)" fill="#4d4d4d">
<defs>
<path id="k" transform="scale(.016)" d="m-19 4666h3947v-532h-1656v-4134h-634v4134h-1657z"/>
</defs>
<use width="100%" height="100%" xlink:href="#f"/>
<use x="63.476562" width="100%" height="100%" xlink:href="#f"/>
<use x="126.95312" width="100%" height="100%" xlink:href="#k"/>
</g>
<path d="m47 110h306" clip-path="url(#a)" fill="none" stroke="#fff"/>
<path d="m47 110" fill="none" stroke="#333" stroke-width="1.5"/>
<defs>
<path id="e" d="m0 0h-2.8" stroke="#000"/>
</defs>
<use x="46.789688" y="110.44089" width="100%" height="100%" fill="#333333" stroke="#000000" xlink:href="#e"/>
<g transform="matrix(.088 0 0 -.088 22 113)" fill="#4d4d4d">
<defs>
<path id="b" transform="scale(.016)" d="m2e3 4250q-487 0-733-480-245-479-245-1442 0-959 245-1439 246-480 733-480 491 0 736 480 246 480 246 1439 0 963-246 1442-245 480-736 480zm0 500q785 0 1199-621 414-620 414-1801 0-1178-414-1799-414-620-1199-620-784 0-1198 620-414 621-414 1799 0 1181 414 1801 414 621 1198 621z"/>
<path id="g" transform="scale(.016)" d="m684 794h660v-794h-660z"/>
<path id="t" transform="scale(.016)" d="m2e3 2216q-450 0-708-241-257-241-257-662 0-422 257-663 258-241 708-241t709 242q260 243 260 662 0 421-258 662-257 241-711 241zm-631 268q-406 100-633 378-226 279-226 679 0 559 398 884 399 325 1092 325 697 0 1094-325t397-884q0-400-227-679-226-278-629-378 456-106 710-416 255-309 255-755 0-679-414-1e3-414-362-1186-362-771 0-1186 362-414 363-414 1e3 0 446 256 755 257 310 713 416zm-231 997q0-362 226-565 227-203 636-203 407 0 636 203 230 203 230 565 0 363-230 566-229 203-636 203-409 0-636-203-226-203-226-566z"/>
</defs>
<use width="100%" height="100%" xlink:href="#b"/>
<use x="63.623047" width="100%" height="100%" xlink:href="#g"/>
<use x="95.410156" width="100%" height="100%" xlink:href="#t"/>
<use x="159.0332" width="100%" height="100%" xlink:href="#b"/>
</g>
<path d="m47 78h306" clip-path="url(#a)" fill="none" stroke="#fff"/>
<path d="m47 78" fill="none" stroke="#333" stroke-width="1.5"/>
<use x="46.789688" y="78.130821" width="100%" height="100%" fill="#333333" stroke="#000000" xlink:href="#e"/>
<g transform="matrix(.088 0 0 -.088 22 81)" fill="#4d4d4d">
<defs>
<path id="u" transform="scale(.016)" d="m691 4666h2478v-532h-1900v-1143q137 47 274 70 138 23 276 23 781 0 1237-428 457-428 457-1159 0-753-469-1171-469-417-1322-417-294 0-599 50-304 50-629 150v635q281-153 581-228t634-75q541 0 856 284 316 284 316 772 0 487-316 771-315 285-856 285-253 0-505-56-251-56-513-175z"/>
</defs>
<use width="100%" height="100%" xlink:href="#b"/>
<use x="63.623047" width="100%" height="100%" xlink:href="#g"/>
<use x="95.410156" width="100%" height="100%" xlink:href="#t"/>
<use x="159.0332" width="100%" height="100%" xlink:href="#u"/>
</g>
<path d="m47 46h306" clip-path="url(#a)" fill="none" stroke="#fff"/>
<path d="m47 46" fill="none" stroke="#333" stroke-width="1.5"/>
<use x="46.789688" y="45.820751" width="100%" height="100%" fill="#333333" stroke="#000000" xlink:href="#e"/>
<g transform="matrix(.088 0 0 -.088 22 48)" fill="#4d4d4d">
<defs>
<path id="s" transform="scale(.016)" d="m703 97v575q238-113 481-172 244-59 479-59 625 0 954 420 330 420 377 1277-181-269-460-413-278-144-615-144-700 0-1108 423-408 424-408 1159 0 718 425 1152 425 435 1131 435 810 0 1236-621 427-620 427-1801 0-1103-524-1761-523-658-1407-658-238 0-482 47-243 47-506 141zm1256 2e3q425 0 673 290 249 291 249 798 0 503-249 795-248 292-673 292t-673-292-248-795q0-507 248-798 248-290 673-290z"/>
</defs>
<use width="100%" height="100%" xlink:href="#b"/>
<use x="63.623047" width="100%" height="100%" xlink:href="#g"/>
<use x="95.410156" width="100%" height="100%" xlink:href="#s"/>
<use x="159.0332" width="100%" height="100%" xlink:href="#b"/>
</g>
<path d="m47 14h306" clip-path="url(#a)" fill="none" stroke="#fff"/>
<path d="m47 14" fill="none" stroke="#333" stroke-width="1.5"/>
<use x="46.789688" y="13.510683" width="100%" height="100%" fill="#333333" stroke="#000000" xlink:href="#e"/>
<g transform="matrix(.088 0 0 -.088 22 16)" fill="#4d4d4d">
<use width="100%" height="100%" xlink:href="#b"/>
<use x="63.623047" width="100%" height="100%" xlink:href="#g"/>
<use x="95.410156" width="100%" height="100%" xlink:href="#s"/>
<use x="159.0332" width="100%" height="100%" xlink:href="#u"/>
</g>
<path d="m47 127h306" clip-path="url(#a)" fill="none" stroke="#fff" stroke-width=".5"/>
<path d="m47 94h306" clip-path="url(#a)" fill="none" stroke="#fff" stroke-width=".5"/>
<path d="m47 62h306" clip-path="url(#a)" fill="none" stroke="#fff" stroke-width=".5"/>
<path d="m47 30h306" clip-path="url(#a)" fill="none" stroke="#fff" stroke-width=".5"/>
<g transform="matrix(0 -.11 -.11 0 16 103)">
<defs>
<path id="aa" transform="scale(.016)" d="m1259 4147v-1753h794q441 0 681 228 241 228 241 650 0 419-241 647-240 228-681 228zm-631 519h1425q785 0 1186-355 402-355 402-1e3 0-691-402-1e3-401-353-1186-353h-794v-1875h-631z"/>
<path id="m" transform="scale(.016)" d="m2631 3e3q-97 56-211 82-114 27-251 27-488 0-749-317t-261-911v-1844h-578v3500h578v-544q182 319 472 473 291 155 707 155 59 0 131-8 72-7 159-23z"/>
<path id="y" transform="scale(.016)" d="m2375 4863v-479h-550q-309 0-430-125-120-125-120-450v-309h947v-447h-947v-3053h-578v3053h-550v447h550v244q0 584 272 851 272 268 862 268z"/>
<path id="i" transform="scale(.016)" d="m2e3 3097q-462 0-731-361t-269-989 267-989q268-361 733-361 460 0 728 362 269 363 269 988 0 622-269 986-268 364-728 364zm0 487q750 0 1178-488 429-487 429-1349 0-859-429-1349-428-489-1178-489-753 0-1180 489-426 490-426 1349 0 862 426 1349 427 488 1180 488z"/>
<path id="x" transform="scale(.016)" d="m3328 2828q216 388 516 572t706 184q547 0 844-383 297-382 297-1088v-2113h-578v2094q0 503-179 746-178 244-543 244-447 0-707-297-259-296-259-809v-2e3h-578v2094q0 506-178 748t-550 242q-441 0-701-298-259-298-259-808v-2e3h-578v3500h578v-544q197 322 472 475t653 153q382 0 649-194 267-193 395-562z"/>
<path id="j" transform="scale(.016)" d="m3513 2113v-2113h-575v2094q0 497-194 743-194 247-581 247-466 0-735-297-269-296-269-809v-2e3h-578v3500h578v-544q207 316 486 472 280 156 646 156 603 0 912-373 310-373 310-1098z"/>
<path id="z" transform="scale(.016)" d="m3122 3366v-538q-244 135-489 202t-495 67q-560 0-870-355-309-354-309-995t309-996q310-354 870-354 250 0 495 67t489 202v-532q-241-112-499-168-257-57-548-57-791 0-1257 497-465 497-465 1341 0 856 470 1346 471 491 1290 491 265 0 518-55 253-54 491-163z"/>
</defs>
<use width="100%" height="100%" xlink:href="#aa"/>
<path d="m113 30v-4.4h-41q.59-9.3 5.6-14t14-4.9q5.2 0 10 1.3 4.9 1.3 9.7 3.8v-8.5q-4.8-2-9.9-3.1-5.1-1.1-10-1.1-13 0-21 7.6-7.6 7.6-7.6 21 0 13 7.2 21 7.2 7.9 20 7.9 11 0 17-7.1 6.4-7.1 6.4-19zm-9 2.6q-.094 7.4-4.1 12-4 4.4-11 4.4-7.5 0-12-4.2t-5.2-12z" stroke-width=".016"/>
<use x="118.20117" width="100%" height="100%" xlink:href="#m"/>
<use x="159.31445" width="100%" height="100%" xlink:href="#y"/>
<use x="194.51953" width="100%" height="100%" xlink:href="#i"/>
<use x="255.70117" width="100%" height="100%" xlink:href="#m"/>
<use x="295.06445" width="100%" height="100%" xlink:href="#x"/>
<path d="m427 27q-11 0-15-2.5-4.2-2.5-4.2-8.5 0-4.8 3.2-7.6 3.2-2.8 8.6-2.8 7.5 0 12 5.3 4.5 5.3 4.5 14v2zm18 3.7v-31h-9v8.3q-3.1-5-7.7-7.3t-11-2.4q-8.4 0-13 4.7-5 4.7-5 13 0 9.2 6.2 14 6.2 4.7 18 4.7h13v.89q0 6.2-4.1 9.6-4.1 3.4-11 3.4-4.7 0-9.1-1.1-4.4-1.1-8.5-3.4v8.3q4.9 1.9 9.6 2.8 4.6.95 9 .95 12 0 18-6.2 5.9-6.1 5.9-19z" stroke-width=".016"/>
<use x="453.75586" width="100%" height="100%" xlink:href="#j"/>
<use x="517.13477" width="100%" height="100%" xlink:href="#z"/>
<path d="m628 30v-4.4h-41q.59-9.3 5.6-14t14-4.9q5.2 0 10 1.3 4.9 1.3 9.7 3.8v-8.5q-4.8-2-9.9-3.1-5.1-1.1-10-1.1-13 0-21 7.6-7.6 7.6-7.6 21 0 13 7.2 21 7.2 7.9 20 7.9 11 0 17-7.1 6.4-7.1 6.4-19zm-9 2.6q-.094 7.4-4.1 12-4 4.4-11 4.4-7.5 0-12-4.2-4.5-4.2-5.2-12z" stroke-width=".016"/>
</g>
<g fill="#57d3db" stroke="#57d3db" stroke-width=".89">
<path d="m104 12-1.8 3.5h3.5z" clip-path="url(#a)"/>
<path d="m200 34-1.8 3.5h3.5z" clip-path="url(#a)"/>
<path d="m296 15-1.8 3.5h3.5z" clip-path="url(#a)"/>
</g>
<g fill="#db5f57" stroke="#db5f57" stroke-width=".89">
<path d="m104 46c.47 0 .92-.19 1.3-.52.33-.33.52-.78.52-1.3s-.19-.92-.52-1.3c-.33-.33-.78-.52-1.3-.52s-.92.19-1.3.52-.52.78-.52 1.3.19.92.52 1.3.78.52 1.3.52z" clip-path="url(#a)"/>
<path d="m200 126c.47 0 .92-.19 1.3-.52s.52-.78.52-1.3-.19-.92-.52-1.3-.78-.52-1.3-.52-.92.19-1.3.52c-.33.33-.52.78-.52 1.3s.19.92.52 1.3c.33.33.78.52 1.3.52z" clip-path="url(#a)"/>
<path d="m296 96c.47 0 .92-.19 1.3-.52.33-.33.52-.78.52-1.3s-.19-.92-.52-1.3c-.33-.33-.78-.52-1.3-.52s-.92.19-1.3.52-.52.78-.52 1.3.19.92.52 1.3.78.52 1.3.52z" clip-path="url(#a)"/>
</g>
<g fill="none" stroke="#db5f57" stroke-width=".89">
<path d="m80 49h48" clip-path="url(#a)"/>
<path d="m80 41h48" clip-path="url(#a)"/>
<path d="m104 41v7.3" clip-path="url(#a)"/>
</g>
<g fill="none" stroke="#57d3db" stroke-width=".89">
<path d="m80 14h48" clip-path="url(#a)"/>
<path d="m80 13h48" clip-path="url(#a)"/>
<path d="m104 13v1.2" clip-path="url(#a)"/>
</g>
<g fill="none" stroke="#db5f57" stroke-width=".89">
<path d="m176 126h48" clip-path="url(#a)"/>
<path d="m176 122h48" clip-path="url(#a)"/>
<path d="m200 122v3.3" clip-path="url(#a)"/>
</g>
<g fill="none" stroke="#57d3db" stroke-width=".89">
<path d="m176 36h48" clip-path="url(#a)"/>
<path d="m176 35h48" clip-path="url(#a)"/>
<path d="m200 35v1.3" clip-path="url(#a)"/>
</g>
<g fill="none" stroke="#db5f57" stroke-width=".89">
<path d="m272 101h48" clip-path="url(#a)"/>
<path d="m272 91h48" clip-path="url(#a)"/>
<path d="m296 91v10" clip-path="url(#a)"/>
</g>
<g fill="none" stroke="#57d3db" stroke-width=".89">
<path d="m272 19h48" clip-path="url(#a)"/>
<path d="m272 15h48" clip-path="url(#a)"/>
<path d="m296 15v3.9" clip-path="url(#a)"/>
</g>
<g transform="translate(0,-10)">
<path d="m117 182h16v-16h-16z" clip-path="url(#d)" fill="#f2f2f2"/>
</g>
<g transform="translate(0,-10)">
<path d="m125 174" clip-path="url(#d)" fill="none" stroke="#1f77b4" stroke-linecap="square" stroke-width="1.5"/>
<defs>
<path id="w" d="m0 1.8c.47 0 .92-.19 1.3-.52s.52-.78.52-1.3-.19-.92-.52-1.3-.78-.52-1.3-.52-.92.19-1.3.52-.52.78-.52 1.3.19.92.52 1.3.78.52 1.3.52z" stroke="#db5f57" stroke-width=".89"/>
</defs>
<g clip-path="url(#d)">
<use x="125.08788" y="173.75154" width="100%" height="100%" fill="#db5f57" stroke="#db5f57" stroke-width=".89" xlink:href="#w"/>
</g>
</g>
<g transform="translate(0,-10)">
<path d="m117 174h16" clip-path="url(#d)" fill="none" stroke="#db5f57" stroke-width=".89"/>
</g>
<g transform="translate(0,-10)">
<g transform="matrix(.088 0 0 -.088 136 176)">
<defs>
<path id="n" transform="scale(.016)" d="m603 3500h575v-3500h-575zm0 1363h575v-729h-575z"/>
<path id="af" transform="scale(.016)" d="m313 2e3h1684v-512h-1684z"/>
<path id="ae" transform="scale(.016)" d="m2188 4e3-857-2322h1716zm-357 622h716l1778-4666h-656l-425 1197h-2103l-425-1197h-666z"/>
</defs>
<use width="100%" height="100%" xlink:href="#l"/>
<use x="68.603516" width="100%" height="100%" xlink:href="#n"/>
<use x="96.386719" width="100%" height="100%" xlink:href="#q"/>
<use x="152.09961" width="100%" height="100%" xlink:href="#f"/>
<use x="215.57617" width="100%" height="100%" xlink:href="#k"/>
<use x="276.66016" width="100%" height="100%" xlink:href="#p"/>
<use x="362.93945" width="100%" height="100%" xlink:href="#af"/>
<use x="396.77344" width="100%" height="100%" xlink:href="#ae"/>
<g stroke-width=".016">
<path d="m482 70v-16h18v-7h-18v-30q0-6.7 1.8-8.6 1.8-1.9 7.5-1.9h9.2v-7.5h-9.2q-10 0-14 3.9-4 3.9-4 14v30h-6.6v7h6.6v16z"/>
<path d="m521 70v-16h18v-7h-18v-30q0-6.7 1.8-8.6 1.8-1.9 7.5-1.9h9.2v-7.5h-9.2q-10 0-14 3.9-4 3.9-4 14v30h-6.6v7h6.6v16z"/>
<path d="m598 30v-4.4h-41q.59-9.3 5.6-14t14-4.9q5.2 0 10 1.3 4.9 1.3 9.7 3.8v-8.5q-4.8-2-9.9-3.1-5.1-1.1-10-1.1-13 0-21 7.6-7.6 7.6-7.6 21 0 13 7.2 21 7.2 7.9 20 7.9 11 0 17-7.1 6.4-7.1 6.4-19zm-9 2.6q-.094 7.4-4.1 12-4 4.4-11 4.4-7.5 0-12-4.2-4.5-4.2-5.2-12z"/>
</g>
<use x="603.37305" width="100%" height="100%" xlink:href="#j"/>
<path d="m685 70v-16h18v-7h-18v-30q0-6.7 1.8-8.6 1.8-1.9 7.5-1.9h9.2v-7.5h-9.2q-10 0-14 3.9-4 3.9-4 14v30h-6.6v7h6.6v16z" stroke-width=".016"/>
<use x="705.96094" width="100%" height="100%" xlink:href="#n"/>
<use x="733.74414" width="100%" height="100%" xlink:href="#i"/>
<use x="794.92578" width="100%" height="100%" xlink:href="#j"/>
</g>
</g>
<g transform="translate(0,-10)">
<path d="m217 182h16v-16h-16z" clip-path="url(#c)" fill="#f2f2f2"/>
</g>
<g transform="translate(0,-10)">
<path d="m224 174" clip-path="url(#c)" fill="none" stroke="#1f77b4" stroke-linecap="square" stroke-width="1.5"/>
<defs>
<path id="v" d="m0-1.8-1.8 3.5h3.5z" stroke="#57d3db" stroke-width=".89"/>
</defs>
<g clip-path="url(#c)">
<use x="224.45799" y="173.75154" width="100%" height="100%" fill="#57d3db" stroke="#57d3db" stroke-width=".89" xlink:href="#v"/>
</g>
</g>
<g transform="translate(0,-10)">
<path d="m217 174h16" clip-path="url(#c)" fill="none" stroke="#57d3db" stroke-width=".89"/>
</g>
<g transform="translate(0,-10)">
<g transform="matrix(.088 0 0 -.088 235 176)">
<defs>
<path id="o" transform="scale(.016)" d="m2841 2188q203-69 395-294t386-619l641-1275h-679l-596 1197q-232 469-449 622t-592 153h-688v-2e3h-631v4666h1425q800 0 1194-335 394-334 394-1e3 0-441-205-732-205-290-595-402zm-1582 2e3v-1656h794q456 0 689 211t233 620-233 617-689 208z"/>
<path id="ac" transform="scale(.016)" d="m628 4666h3e3v-532h-2319v-1381h2222v-531h-2222v-1691h2375v-531h-3e3z"/>
</defs>
<use width="100%" height="100%" xlink:href="#o"/>
<use x="64.982422" width="100%" height="100%" xlink:href="#i"/>
<use x="126.16406" width="100%" height="100%" xlink:href="#l"/>
<use x="194.76758" width="100%" height="100%" xlink:href="#ac"/>
<use x="257.95117" width="100%" height="100%" xlink:href="#o"/>
<use x="320.18359" width="100%" height="100%" xlink:href="#k"/>
<path d="m399 27q-11 0-15-2.5-4.2-2.5-4.2-8.5 0-4.8 3.2-7.6 3.2-2.8 8.6-2.8 7.5 0 12 5.3 4.5 5.3 4.5 14v2zm18 3.7v-31h-9v8.3q-3.1-5-7.7-7.3t-11-2.4q-8.4 0-13 4.7-5 4.7-5 13 0 9.2 6.2 14 6.2 4.7 18 4.7h13v.89q0 6.2-4.1 9.6-4.1 3.4-11 3.4-4.7 0-9.1-1.1-4.4-1.1-8.5-3.4v8.3q4.9 1.9 9.6 2.8 4.6.95 9 .95 12 0 18-6.2 5.9-6.1 5.9-19z" stroke-width=".016"/>
</g>
</g>
</g>
<defs>
<clipPath id="a">
<rect x="47" y="7.2" width="306" height="124"/>
</clipPath>
<clipPath id="d">
<path d="m117 182v-16h16v16"/>
</clipPath>
<clipPath id="c">
<path d="m217 182v-16h16v16"/>
</clipPath>
</defs>
</svg>
